<svg width="120" height="70" viewBox="0 0 120 70" fill="none" xmlns="http://www.w3.org/2000/svg">
<g clip-path="url(#clip0)">
<path d="M3.82935 -6.27344H-6.17065V3.72656V65.9811V75.9811H3.82935H116.221H126.221V65.9811V3.72656V-6.27344H116.221H3.82935Z" fill="white" stroke="#E6E6E6" stroke-width="20"/>
<path d="M39.6402 8.84717H17.658V32.6959H39.6402V8.84717Z" fill="#E6E6E6"/>
<path d="M71.0161 8.84717H49.0339V32.6959H71.0161V8.84717Z" fill="#E6E6E6"/>
<path d="M102.392 8.84717H80.4102V32.6959H102.392V8.84717Z" fill="#E6E6E6"/>
<path d="M39.6402 37.0122H17.658V60.8609H39.6402V37.0122Z" fill="#E6E6E6"/>
<path d="M71.0161 37.0122H49.0339V60.8609H71.0161V37.0122Z" fill="#E6E6E6"/>
<path d="M102.392 37.0122H80.4102V60.8609H102.392V37.0122Z" fill="#E6E6E6"/>
<path d="M54.3471 43.1416L58.3635 41.5537L58.8305 49.4931C58.8305 49.4931 59.6711 51.9216 59.3909 52.8557C59.3909 52.8557 59.5777 54.4435 59.1107 54.5369C58.6437 54.6303 57.336 54.8171 57.2426 54.7237C57.1492 54.6303 57.1492 54.3501 57.1492 54.3501C57.1492 54.3501 56.2152 55.004 56.1218 55.7512C56.1218 55.7512 52.1988 56.9655 52.1054 55.8446C52.012 54.7237 54.0669 53.7897 54.0669 53.7897L55.6548 51.3612L54.3471 43.1416Z" fill="white"/>
<path d="M62.8468 43.1416L66.8632 41.5537L67.3303 49.4931C67.3303 49.4931 68.1709 51.9216 67.8907 52.8557C67.8907 52.8557 68.0775 54.4435 67.6105 54.5369C67.1435 54.6303 65.8358 54.8171 65.7424 54.7237C65.649 54.6303 65.649 54.3501 65.649 54.3501C65.649 54.3501 64.7149 55.004 64.6215 55.7512C64.6215 55.7512 60.6985 56.9655 60.6051 55.8446C60.5117 54.7237 62.5666 53.7897 62.5666 53.7897L64.1545 51.3612L62.8468 43.1416Z" fill="white"/>
<path d="M63.2398 12.4826C63.2398 12.4826 62.3846 14.8722 63.3755 15.9498L62.5494 18.7885C62.5494 18.7885 65.4845 27.5937 64.6459 28.8237C64.6459 28.8237 61.5152 30.389 55.2537 28.2646L57.7974 18.3971L57.434 14.2321L57.9372 12.2754L59.0553 12.1636C59.0553 12.1636 58.3844 14.6794 59.6144 15.0707C60.8443 15.462 62.0442 12.2264 62.0442 12.2264L63.2398 12.4826Z" fill="#469ED5"/>
<path d="M23.7449 27.9092L24.8241 28.3507L29.975 21.581L31.5938 29.528L32.673 29.3318C33.3653 22.4804 33.9298 15.4921 33.2372 12.1868L29.2391 12.0151L27.4241 17.8037L26.541 21.7282L23.7449 27.9092Z" fill="white"/>
<path d="M89.2471 12.1318C89.2471 12.1318 87.7742 14.1795 87.8461 15.0057C87.9179 15.832 88.8519 29.3034 88.8519 29.3034L91.0433 29.4112L90.3966 19.7118L90.9355 17.0893L92.2647 29.3034L94.9589 29.3753L92.5521 13.5329L92.085 12.1318L89.2471 12.1318Z" fill="white"/>
<path d="M97.5715 45.1189C97.1805 44.6497 96.5082 44.3959 95.8626 44.2588C95.882 44.2001 93.8993 43.7906 93.8661 43.875L93.1189 43.2798L90.8234 44.4719L89.5333 43.5937L88.934 43.8063C88.9584 43.7007 87.0737 44.027 87.0737 44.027C86.7137 44.04 86.2538 44.0625 85.7391 44.1021C83.9365 44.2408 83.7979 48.909 83.7979 48.909C84.6272 48.5697 85.5116 48.3846 86.4074 48.3627L86.8946 53.947C89.4005 53.7321 92.0287 53.9822 94.7521 54.5941L96.0295 50.2046L99.0044 49.0477C99.0044 49.0477 98.4959 46.2282 97.5715 45.1189Z" fill="#469ED5"/>
<path d="M33.7333 42.4602C33.411 42.0735 32.8572 41.8645 32.3252 41.7515C32.3412 41.7031 30.7075 41.3657 30.6802 41.4353L30.0645 40.9448L28.173 41.9271L27.11 41.2035L26.6163 41.3787C26.6364 41.2916 25.0835 41.5605 25.0835 41.5605C24.7868 41.5712 24.4079 41.5898 23.9838 41.6224C22.4985 41.7366 22.3843 45.5831 22.3843 45.5831C23.0677 45.3035 23.7963 45.151 24.5344 45.1329L24.9359 56.3959C27.0007 56.2188 29.1662 56.4249 31.4101 56.9291L32.4627 46.6506L34.9139 45.6973C34.9139 45.6973 34.4949 43.3742 33.7333 42.4602Z" fill="white"/>
</g>
<defs>
<clipPath id="clip0">
<rect width="120" height="69.7072" fill="white"/>
</clipPath>
</defs>
</svg>
