<svg width="170" height="124" viewBox="0 0 170 124" fill="none" xmlns="http://www.w3.org/2000/svg">
<g clip-path="url(#clip0_1_130)">
<path d="M80.8054 0.132801H168.885C169.374 0.132801 169.77 0.528907 169.77 1.01753V74.3519C169.77 74.8405 169.374 75.2366 168.885 75.2366H80.8054C80.3167 75.2366 79.9206 74.8405 79.9206 74.3519V1.01753C79.9206 0.528908 80.3167 0.132801 80.8054 0.132801Z" fill="#FDFDFD" stroke="#CACACA" stroke-width="0.58982"/>
<path d="M19.9175 90.3435C19.772 90.3502 19.6279 90.312 19.5049 90.2341C19.3818 90.1562 19.2856 90.0423 19.2295 89.908C19.1733 89.7736 19.1597 89.6252 19.1907 89.4828C19.2217 89.3405 19.2957 89.2111 19.4026 89.1123C19.4205 89.0411 19.4334 88.9899 19.4513 88.9187C19.4449 88.9032 19.4384 88.8878 19.432 88.8723C19.2854 88.5261 19.0397 88.2309 18.7259 88.0238C18.4121 87.8167 18.0441 87.707 17.6681 87.7084C17.2921 87.7098 16.925 87.8222 16.6127 88.0316C16.3004 88.241 16.057 88.5381 15.913 88.8854C15.3374 90.2715 14.6047 91.6601 14.4243 93.1257C14.3448 93.7736 14.3783 94.4303 14.5233 95.0667C13.1715 92.1179 12.4696 88.913 12.4651 85.6691C12.4648 84.8551 12.51 84.0417 12.6005 83.2328C12.6753 82.5696 12.7791 81.9111 12.9119 81.2574C13.6364 77.7103 15.192 74.3857 17.451 71.5565C18.5443 70.96 19.4285 70.0426 19.9844 68.9281C20.1857 68.5275 20.3281 68.0998 20.4069 67.6584C20.2836 67.6746 20.1582 67.6847 20.0349 67.6927C19.9965 67.6948 19.9561 67.6968 19.9176 67.6988L19.9032 67.6995C19.7676 67.7055 19.6332 67.6723 19.5161 67.6038C19.399 67.5352 19.3042 67.4343 19.2431 67.3132C19.182 67.192 19.1573 67.0558 19.1718 66.9209C19.1864 66.786 19.2396 66.6581 19.3251 66.5528C19.3784 66.4873 19.4316 66.4218 19.4849 66.3563C19.5658 66.2552 19.6487 66.1561 19.7296 66.055C19.7389 66.0454 19.7477 66.0353 19.7559 66.0247C19.8489 65.9094 19.9419 65.7962 20.0349 65.681C19.8651 65.4175 19.6368 65.1968 19.3677 65.036C18.4356 64.4901 17.1497 64.8682 16.4764 65.7113C15.8011 66.5544 15.6738 67.7372 15.9083 68.7906C16.1389 69.6869 16.5204 70.5375 17.0365 71.3058C16.9859 71.3705 16.9334 71.4332 16.8828 71.4979C15.9588 72.686 15.1535 73.9619 14.4784 75.3071C14.6425 73.8 14.4466 72.2755 13.9066 70.859C13.3594 69.5388 12.3337 68.427 11.4304 67.2857C10.3454 65.9148 8.12052 66.5131 7.92937 68.2509C7.92752 68.2677 7.92571 68.2845 7.92395 68.3013C8.05812 68.377 8.18945 68.4574 8.31795 68.5423C8.47938 68.6502 8.60446 68.8043 8.67681 68.9844C8.74916 69.1646 8.76541 69.3624 8.72341 69.552C8.68142 69.7415 8.58315 69.914 8.44147 70.0467C8.2998 70.1794 8.12133 70.2663 7.92946 70.2959L7.90981 70.2989C7.9576 70.7825 8.04209 71.2617 8.16253 71.7324C8.51154 73.0466 9.12828 74.2745 9.97407 75.3391C10.8199 76.4037 11.8765 77.2822 13.0777 77.9193C13.1565 77.9598 13.2334 78.0002 13.3122 78.0386C12.6339 79.9608 12.2085 81.9631 12.0465 83.995C11.9549 85.1938 11.9603 86.398 12.0627 87.5959L12.0566 87.5535C11.7978 86.2214 11.0872 85.0195 10.0449 84.1507C8.49672 82.8789 6.30947 82.4106 4.63928 81.3884C4.46178 81.2744 4.25539 81.2136 4.04446 81.2131C3.83352 81.2126 3.62684 81.2724 3.44878 81.3855C3.27073 81.4986 3.12873 81.6602 3.03953 81.8514C2.95034 82.0425 2.91767 82.2552 2.94537 82.4643C2.94761 82.4792 2.94989 82.4941 2.9522 82.5089C3.20118 82.6103 3.44359 82.7272 3.67804 82.8587C3.81221 82.9344 3.94355 83.0147 4.07205 83.0997C4.23348 83.2076 4.35856 83.3617 4.43091 83.5418C4.50326 83.722 4.5195 83.9198 4.47751 84.1094C4.43552 84.2989 4.33724 84.4713 4.19557 84.6041C4.0539 84.7368 3.87543 84.8237 3.68355 84.8533L3.66389 84.8563C3.64973 84.8583 3.63761 84.8603 3.62347 84.8624C4.04888 85.8781 4.64595 86.8131 5.38854 87.6262C6.30589 88.6106 7.41463 89.3972 8.64678 89.9378C9.87892 90.4785 11.2085 90.7617 12.554 90.7703H12.556C12.9213 92.3574 13.4505 93.9023 14.1351 95.3801H19.7761C19.7963 95.3174 19.8145 95.2527 19.8327 95.19C19.3106 95.2228 18.7864 95.1916 18.2718 95.097C18.6904 94.5835 19.1089 94.0659 19.5274 93.5523C19.5368 93.5427 19.5455 93.5326 19.5537 93.522C19.766 93.2592 19.9803 92.9983 20.1926 92.7355L20.1927 92.7352C20.204 91.9295 20.1116 91.1257 19.9176 90.3437L19.9175 90.3435Z" fill="#F2F2F2"/>
<path d="M86.4421 95.4566C86.4422 95.4874 86.4362 95.5178 86.4245 95.5463C86.4128 95.5747 86.3955 95.6005 86.3738 95.6223C86.352 95.644 86.3262 95.6612 86.2978 95.673C86.2694 95.6847 86.2389 95.6907 86.2081 95.6906H0.233963C0.171912 95.6906 0.112405 95.6659 0.0685286 95.6221C0.0246522 95.5782 0 95.5187 0 95.4566C0 95.3946 0.0246522 95.3351 0.0685286 95.2912C0.112405 95.2473 0.171912 95.2227 0.233963 95.2227H86.2082C86.2389 95.2226 86.2694 95.2286 86.2978 95.2403C86.3262 95.252 86.352 95.2692 86.3738 95.291C86.3955 95.3127 86.4128 95.3386 86.4245 95.367C86.4362 95.3954 86.4422 95.4259 86.4421 95.4566Z" fill="#CCCCCC"/>
<path d="M45.0194 65.4034C44.6956 65.3259 44.3588 65.3203 44.0326 65.3871C43.7065 65.4539 43.3989 65.5914 43.1316 65.7899C42.8643 65.9884 42.6438 66.243 42.4856 66.536C42.3274 66.8289 42.2354 67.153 42.216 67.4854L37.301 69.1958L37.612 72.4362L44.5189 69.9231C45.0794 69.9187 45.6189 69.7089 46.035 69.3333C46.4511 68.9578 46.715 68.4427 46.7767 67.8855C46.8384 67.3284 46.6936 66.768 46.3697 66.3105C46.0458 65.853 45.5654 65.5303 45.0194 65.4034Z" fill="#FFB6B6"/>
<path d="M37.0093 74.8213C35.055 76.1834 31.6121 76.8802 26.9263 76.8483C26.6668 76.849 26.4101 76.7958 26.1723 76.6921C25.9345 76.5884 25.7208 76.4365 25.5448 76.2459C24.291 74.9403 24.34 71.9599 24.3478 71.672L22.9735 66.4929C22.944 66.4137 22.1834 64.2886 22.9572 62.8047C23.1219 62.4947 23.3517 62.2241 23.6309 62.0113C23.91 61.7986 24.2319 61.6488 24.5745 61.5722C27.4808 60.801 30.2129 68.5806 30.56 69.6086L34.6387 68.914L37.4553 68.7982L40.321 67.2164L41.9344 71.0778L37.9416 73.9956C37.6662 74.3083 37.353 74.5857 37.0093 74.8213Z" fill="#2F2E41"/>
<path d="M44.879 117.645L47.8834 117.786L49.8546 106.264L45.4205 106.057L44.879 117.645Z" fill="#FFB6B6"/>
<path d="M44.2032 116.128L48.9657 116.067L48.8706 118.102L53.24 121.431C53.4558 121.596 53.6134 121.825 53.6898 122.085C53.7662 122.345 53.7574 122.623 53.6646 122.878C53.5719 123.133 53.4 123.352 53.1742 123.502C52.9484 123.653 52.6804 123.727 52.4094 123.714L46.7552 123.45L45.8748 121.392L45.4001 123.387L43.2683 123.287L44.2032 116.128Z" fill="#2F2E41"/>
<path d="M76.2466 92.9074L77.3411 90.106L67.0564 84.5513L61.8608 87.8169L76.2466 92.9074Z" fill="#FFB6B6"/>
<path d="M74.593 93.0623L76.059 88.5306L77.9563 89.272L82.5091 86.1979C82.7339 86.0461 83.0015 85.9701 83.2726 85.981C83.5437 85.992 83.8042 86.0893 84.016 86.2587C84.2279 86.4282 84.3801 86.661 84.4503 86.9231C84.5205 87.1851 84.5051 87.4628 84.4064 87.7155L82.3463 92.9877L80.1145 93.1631L81.8526 94.2512L81.0759 96.239L74.593 93.0623Z" fill="#2F2E41"/>
<path d="M17.163 84.5695C17.163 84.5695 18.4107 92.5352 24.3089 93.125C30.2071 93.7148 35.644 91.0575 35.644 91.0575L52.159 85.9713C52.159 85.9713 69.7251 90.9623 72.6742 91.7487C72.6742 91.7487 74.7084 87.1316 74.6403 86.8336C74.013 84.0894 73.1959 85.9457 73.1959 85.9457L54.5183 77.6883C54.5183 77.6883 51.5692 76.9018 46.4574 79.0645C41.3456 81.2272 27.6512 86.4404 27.6512 86.4404L17.163 84.5695Z" fill="#2F2E41"/>
<path d="M17.231 84.0811C17.231 84.0811 16.2473 93.6237 21.9929 95.0815C27.4545 96.4673 34.9882 95.0457 34.9882 95.0457L43.9695 94.108C43.9695 94.108 44.3627 105.648 44.3627 111.35C46.1875 111.598 48.0262 111.729 49.8677 111.743C50.2609 111.743 50.287 111.537 50.287 111.537L51.0484 91.5922C51.1019 90.7251 50.9732 89.8563 50.6707 89.0419C50.3682 88.2275 49.8986 87.4854 49.292 86.8634C48.6854 86.2415 47.9553 85.7534 47.1487 85.4306C46.3421 85.1078 45.4769 84.9574 44.6087 84.9891C44.1847 85.0053 43.74 85.0354 43.2744 85.0792C37.7493 85.609 30.8901 84.4828 30.8901 84.4828L17.231 84.0811Z" fill="#2F2E41"/>
<path d="M33.1677 70.2378C33.1677 70.2378 35.5002 84.3431 33.9239 85.4691C32.3476 86.5951 30.1859 86.5995 30.1859 86.5995L29.6832 78.8114L33.1677 70.2378Z" fill="#2F2E41"/>
<path d="M29.2773 52.9146L32.3961 55.8781C33.8456 57.2555 34.8065 59.0681 35.1329 61.0409C35.4593 63.0137 35.1335 65.0392 34.2048 66.8101L32.714 69.653L29.2773 52.9146Z" fill="#2F2E41"/>
<path d="M28.5801 53.4126L32.8059 58.2259C33.7333 59.2823 34.3081 60.6018 34.45 62.0003C34.5144 62.6354 34.4885 63.2764 34.373 63.9041L32.7805 72.5616L31.5835 85.064C31.5835 85.064 22.3423 87.864 21.3964 83.5404C20.4505 79.2167 28.5801 53.4126 28.5801 53.4126Z" fill="#228AC7"/>
<path d="M24.6134 86.2393C18.5386 85.2269 17.0505 85.0259 16.9578 84.9905L16.865 84.9551L17.4739 81.3013L20.045 74.9834C20.212 72.9167 21.295 70.1165 20.6754 67.8673C18.8744 61.3288 21.8005 52.0891 23.1387 51.3812L26.8485 48.9492L28.1508 50.1432L30.4087 53.304C32.2664 61.5794 33.5495 69.2926 33.4871 69.7641L32.3405 77.8656L30.9894 80.9732C26.8906 82.9509 29.6468 87.0781 24.6134 86.2393Z" fill="#2F2E41"/>
<path d="M35.6116 80.2961L45.1498 77.7441L45.9896 77.545L46.5884 77.4028L47.2863 77.2378L47.2919 77.2365C47.3933 77.2133 47.4997 77.2311 47.5882 77.2858L51.1298 81.532C51.1618 81.5518 51.1901 81.5771 51.2131 81.6069C51.2226 81.6146 51.2311 81.6235 51.2383 81.6334C51.2775 81.6868 51.3029 81.7491 51.3124 81.8147C51.3218 81.8803 51.315 81.9473 51.2925 82.0096C51.27 82.072 51.2325 82.1278 51.1833 82.1723C51.1341 82.2167 51.0748 82.2484 51.0105 82.2645L36.7815 85.539C36.7077 85.5557 36.6308 85.5512 36.5595 85.526C36.4882 85.5009 36.4255 85.456 36.3786 85.3967L36.2342 85.2097L35.4468 81.4179L35.3908 80.9256C35.355 80.88 35.3298 80.8272 35.3169 80.7707C35.294 80.6688 35.3121 80.5619 35.3672 80.4731C35.4223 80.3844 35.5101 80.3208 35.6116 80.2961Z" fill="#E6E6E6"/>
<path opacity="0.17" d="M36.2341 85.2094L36.3794 85.397C36.4262 85.4562 36.4887 85.5009 36.5598 85.5261C36.6309 85.5512 36.7076 85.5558 36.7812 85.5393L51.0107 82.2647C51.075 82.2486 51.1344 82.217 51.1836 82.1726C51.2327 82.1282 51.2702 82.0723 51.2927 82.01C51.3152 81.9477 51.3219 81.8808 51.3124 81.8152C51.3029 81.7496 51.2774 81.6874 51.2381 81.634C51.2312 81.6239 51.2228 81.615 51.2133 81.6074L36.2341 85.2094Z" fill="black"/>
<path d="M47.2152 77.2098L46.9578 59.0699C46.947 58.9606 46.9801 58.8516 47.0496 58.7667L48.8729 54.972L49.0623 54.7419C49.1327 54.6577 49.2333 54.6045 49.3425 54.5937L49.7394 54.5567C49.8487 54.5459 49.9578 54.5791 50.0427 54.6488C50.1276 54.7185 50.1814 54.819 50.1921 54.9284L50.5495 74.1218L50.5498 74.1232L50.7269 75.9713L50.9367 78.1658L50.9374 78.1686L51.2649 81.5829C51.271 81.6413 51.2644 81.7003 51.2455 81.7559C51.2266 81.8115 51.1958 81.8623 51.1553 81.9048C51.1159 81.9479 51.0677 81.9821 51.014 82.0051C50.9602 82.0281 50.9022 82.0394 50.8438 82.0382L50.5856 82.033C50.4866 82.0304 50.3916 81.993 50.3175 81.9272L50.173 81.7975L50.1061 81.7365L47.3522 77.4794C47.274 77.4101 47.225 77.3137 47.2152 77.2098Z" fill="#E6E6E6"/>
<path opacity="0.17" d="M48.8738 54.9721L50.106 81.7373L50.1734 81.7975L50.3173 81.9269C50.3914 81.9928 50.4864 82.0303 50.5856 82.0327L50.8441 82.0379C50.9026 82.0389 50.9607 82.0276 51.0145 82.0046C51.0683 81.9816 51.1166 81.9475 51.1564 81.9046C51.1961 81.8616 51.2263 81.8108 51.2451 81.7554C51.2638 81.7 51.2706 81.6412 51.2651 81.583L50.1918 54.9291C50.1813 54.8197 50.1278 54.7189 50.043 54.649C49.9582 54.5791 49.8492 54.5456 49.7398 54.5561L49.3421 54.5942C49.2881 54.5992 49.2357 54.6148 49.1878 54.6403C49.1399 54.6657 49.0976 54.7005 49.0633 54.7425L48.8738 54.9721Z" fill="black"/>
<path d="M48.9772 56.0537L47.3098 60.1697L47.5161 72.4826L49.3213 75.0933L48.9772 56.0537Z" fill="#228AC7"/>
<path d="M36.7108 80.187C36.6196 80.213 36.5424 80.2742 36.4963 80.3571C36.4501 80.44 36.4387 80.5379 36.4647 80.6291L37.1993 83.6905L37.8876 83.4946L37.153 80.4331C37.127 80.3419 37.0658 80.2647 36.9829 80.2185C36.9 80.1724 36.8021 80.161 36.7108 80.187Z" fill="#2F2E41"/>
<path d="M38.0874 79.7954C37.9962 79.8214 37.919 79.8826 37.8728 79.9655C37.8267 80.0484 37.8153 80.1463 37.8413 80.2375L37.9981 80.7882L38.6864 80.5922L38.5296 80.0416C38.5036 79.9503 38.4424 79.8731 38.3595 79.8269C38.2766 79.7808 38.1787 79.7694 38.0874 79.7954Z" fill="#2F2E41"/>
<path d="M39.4641 79.4033C39.3729 79.4293 39.2957 79.4905 39.2495 79.5734C39.2034 79.6563 39.192 79.7542 39.218 79.8454L39.3748 80.3961L40.0631 80.2001L39.9063 79.6495C39.8803 79.5582 39.8191 79.481 39.7362 79.4348C39.6533 79.3887 39.5554 79.3773 39.4641 79.4033Z" fill="#2F2E41"/>
<path d="M40.8407 79.0112C40.7495 79.0372 40.6723 79.0984 40.6261 79.1813C40.58 79.2642 40.5686 79.3621 40.5946 79.4534L40.7514 80.004L41.4397 79.808L41.2829 79.2574C41.2569 79.1661 41.1957 79.0889 41.1128 79.0428C41.0299 78.9966 40.932 78.9853 40.8407 79.0112Z" fill="#2F2E41"/>
<path d="M42.2173 78.6191C42.1261 78.6451 42.0489 78.7063 42.0027 78.7892C41.9566 78.8722 41.9452 78.97 41.9712 79.0613L42.128 79.6119L42.8163 79.4159L42.6595 78.8653C42.6335 78.774 42.5723 78.6968 42.4894 78.6507C42.4064 78.6045 42.3086 78.5932 42.2173 78.6191Z" fill="#2F2E41"/>
<path d="M43.5939 78.2275C43.5027 78.2535 43.4255 78.3147 43.3793 78.3976C43.3331 78.4806 43.3218 78.5784 43.3478 78.6697L43.5045 79.2203L44.1929 79.0243L44.0361 78.4737C44.01 78.3824 43.9488 78.3052 43.8659 78.2591C43.783 78.2129 43.6852 78.2016 43.5939 78.2275Z" fill="#2F2E41"/>
<path d="M44.9705 77.8354C44.8792 77.8615 44.8021 77.9226 44.7559 78.0056C44.7097 78.0885 44.6984 78.1863 44.7243 78.2776L44.8811 78.8282L45.5694 78.6322L45.4126 78.0816C45.3866 77.9903 45.3254 77.9131 45.2425 77.867C45.1596 77.8208 45.0618 77.8095 44.9705 77.8354Z" fill="#2F2E41"/>
<path d="M46.3472 77.4433C46.256 77.4694 46.1788 77.5306 46.1326 77.6135C46.0864 77.6964 46.0751 77.7942 46.1011 77.8855L46.2578 78.4361L46.9461 78.2401L46.7894 77.6895C46.7633 77.5982 46.7021 77.521 46.6192 77.4749C46.5363 77.4287 46.4385 77.4174 46.3472 77.4433Z" fill="#2F2E41"/>
<path d="M38.3764 81.0508C38.2851 81.0768 38.2079 81.138 38.1618 81.2209C38.1156 81.3038 38.1043 81.4016 38.1302 81.4929L38.287 82.0436L38.9753 81.8476L38.8185 81.2969C38.7925 81.2057 38.7313 81.1285 38.6484 81.0823C38.5655 81.0362 38.4677 81.0248 38.3764 81.0508Z" fill="#2F2E41"/>
<path d="M39.753 80.6587C39.6617 80.6847 39.5845 80.7459 39.5384 80.8288C39.4922 80.9117 39.4809 81.0095 39.5068 81.1008L39.6636 81.6515L40.3519 81.4555L40.1951 80.9048C40.1691 80.8136 40.1079 80.7364 40.025 80.6902C39.9421 80.6441 39.8442 80.6327 39.753 80.6587Z" fill="#2F2E41"/>
<path d="M41.1297 80.2666C41.0384 80.2926 40.9612 80.3538 40.9151 80.4367C40.8689 80.5196 40.8576 80.6175 40.8835 80.7087L41.0403 81.2594L41.7286 81.0634L41.5718 80.5127C41.5458 80.4215 41.4846 80.3443 41.4017 80.2981C41.3188 80.252 41.221 80.2406 41.1297 80.2666Z" fill="#2F2E41"/>
<path d="M42.5062 79.875C42.4149 79.901 42.3377 79.9622 42.2915 80.0451C42.2454 80.128 42.234 80.2258 42.26 80.3171L42.4168 80.8678L43.1051 80.6718L42.9483 80.1211C42.9223 80.0299 42.8611 79.9527 42.7782 79.9065C42.6953 79.8604 42.5974 79.849 42.5062 79.875Z" fill="#2F2E41"/>
<path d="M43.8828 79.4829C43.7916 79.5089 43.7144 79.5701 43.6683 79.653C43.6221 79.7359 43.6107 79.8338 43.6367 79.925L43.7935 80.4757L44.4818 80.2797L44.325 79.7291C44.299 79.6378 44.2378 79.5606 44.1549 79.5144C44.072 79.4683 43.9741 79.4569 43.8828 79.4829Z" fill="#2F2E41"/>
<path d="M45.2594 79.0908C45.1682 79.1168 45.091 79.178 45.0448 79.2609C44.9987 79.3438 44.9873 79.4417 45.0133 79.5329L45.1701 80.0836L45.8584 79.8876L45.7016 79.337C45.6756 79.2457 45.6144 79.1685 45.5315 79.1224C45.4486 79.0762 45.3507 79.0648 45.2594 79.0908Z" fill="#2F2E41"/>
<path d="M46.636 78.6987C46.5448 78.7247 46.4676 78.7859 46.4214 78.8688C46.3753 78.9517 46.3639 79.0496 46.3899 79.1409L46.5467 79.6915L47.235 79.4955L47.0782 78.9449C47.0522 78.8536 46.991 78.7764 46.9081 78.7303C46.8251 78.6841 46.7273 78.6728 46.636 78.6987Z" fill="#2F2E41"/>
<path d="M38.6653 82.3061C38.5741 82.3322 38.4969 82.3933 38.4507 82.4763C38.4046 82.5592 38.3932 82.657 38.4192 82.7483L38.576 83.2989L39.2643 83.1029L39.1075 82.5523C39.0815 82.461 39.0203 82.3838 38.9374 82.3377C38.8544 82.2915 38.7566 82.2802 38.6653 82.3061Z" fill="#2F2E41"/>
<path d="M40.0419 81.914C39.9507 81.9401 39.8735 82.0013 39.8273 82.0842C39.7811 82.1671 39.7698 82.2649 39.7958 82.3562L39.9525 82.9068L40.6409 82.7109L40.4841 82.1602C40.458 82.0689 40.3968 81.9917 40.3139 81.9456C40.231 81.8994 40.1332 81.8881 40.0419 81.914Z" fill="#2F2E41"/>
<path d="M41.4185 81.522C41.3272 81.548 41.25 81.6092 41.2039 81.6921C41.1577 81.775 41.1464 81.8728 41.1723 81.9641L41.3291 82.5147L42.0174 82.3188L41.8606 81.7681C41.8346 81.6769 41.7734 81.5997 41.6905 81.5535C41.6076 81.5073 41.5098 81.496 41.4185 81.522Z" fill="#2F2E41"/>
<path d="M42.7951 81.1304C42.7038 81.1564 42.6266 81.2176 42.5805 81.3005C42.5343 81.3834 42.523 81.4812 42.5489 81.5725L42.7057 82.1231L43.394 81.9272L43.2372 81.3765C43.2112 81.2852 43.15 81.2081 43.0671 81.1619C42.9842 81.1157 42.8864 81.1044 42.7951 81.1304Z" fill="#2F2E41"/>
<path d="M44.1717 80.7383C44.0804 80.7643 44.0032 80.8255 43.9571 80.9084C43.9109 80.9913 43.8996 81.0891 43.9255 81.1804L44.0823 81.7311L44.7706 81.5351L44.6138 80.9844C44.5878 80.8932 44.5266 80.816 44.4437 80.7698C44.3608 80.7237 44.2629 80.7123 44.1717 80.7383Z" fill="#2F2E41"/>
<path d="M45.5484 80.3462C45.4571 80.3722 45.3799 80.4334 45.3338 80.5163C45.2876 80.5992 45.2763 80.697 45.3022 80.7883L45.459 81.339L46.1473 81.143L45.9905 80.5923C45.9645 80.5011 45.9033 80.4239 45.8204 80.3777C45.7375 80.3316 45.6397 80.3202 45.5484 80.3462Z" fill="#2F2E41"/>
<path d="M46.925 79.9541C46.8337 79.9801 46.7565 80.0413 46.7104 80.1242C46.6642 80.2071 46.6529 80.305 46.6788 80.3962L46.8356 80.9469L47.5239 80.7509L47.3671 80.2002C47.3411 80.109 47.2799 80.0318 47.197 79.9856C47.1141 79.9395 47.0162 79.9281 46.925 79.9541Z" fill="#2F2E41"/>
<path d="M42.8805 77.5783C42.6959 77.3013 42.4528 77.0681 42.1683 76.8952C41.8838 76.7223 41.5648 76.6138 41.2339 76.5775C40.9029 76.5412 40.5681 76.5779 40.2528 76.685C39.9376 76.7921 39.6497 76.967 39.4094 77.1974L34.6432 75.1079L32.667 77.6946L39.4392 80.5509C39.853 80.9289 40.3912 81.1421 40.9516 81.1498C41.5121 81.1576 42.056 80.9596 42.4802 80.5932C42.9044 80.2268 43.1794 79.7175 43.2532 79.1618C43.327 78.6062 43.1944 78.0428 42.8805 77.5783Z" fill="#FFB6B6"/>
<path d="M30.6026 79.0328C28.2435 78.7019 25.2459 76.8706 21.8329 73.6597C21.6423 73.4838 21.4903 73.2702 21.3865 73.0324C21.2827 72.7946 21.2295 72.5379 21.2301 72.2785C21.1992 70.4686 23.2624 68.3173 23.464 68.1116L25.9796 63.3805C26.0119 63.3024 26.8999 61.2273 28.4766 60.666C28.8081 60.5508 29.1607 60.5087 29.51 60.5427C29.8594 60.5766 30.1972 60.6858 30.5004 60.8627C33.1553 62.2744 29.8659 69.8352 29.4211 70.8249L32.8832 73.0902L35.0266 74.9213L38.2031 75.7111L36.7591 79.639L31.8476 79.0618C31.433 79.1036 31.0148 79.0939 30.6026 79.0328Z" fill="#2F2E41"/>
<path d="M35.2543 43.2467C35.6519 39.9281 33.3426 36.9225 30.0963 36.5335C26.85 36.1446 23.896 38.5196 23.4984 41.8382C23.1008 45.1569 25.4101 48.1625 28.6564 48.5514C31.9027 48.9404 34.8567 46.5654 35.2543 43.2467Z" fill="#FFB6B6"/>
<path d="M13.9598 38.0522C15.0985 37.0067 15.7588 35.5178 16.716 34.2904C17.6733 33.063 19.2051 32.0454 20.6366 32.5292C21.6234 32.8628 22.2987 33.8497 22.5754 34.893C22.852 35.9362 22.7947 37.0433 22.7352 38.1275C22.9756 35.9136 24.689 33.9448 26.78 33.4798C28.8709 33.0147 31.1779 34.0893 32.2259 36.0166C32.8372 35.5725 33.5901 35.3682 34.342 35.4423C35.094 35.5164 35.7925 35.8638 36.3054 36.4187C37.3123 37.5618 37.3321 39.5101 36.3487 40.6964C35.3653 41.8826 33.5117 42.1464 32.2791 41.2754L31.7618 41.6482C31.9141 42.597 31.2757 43.6197 30.3792 43.8626C29.6524 44.0596 28.6791 43.8957 28.3325 44.5922C28.0903 45.0789 28.3641 45.6621 28.6778 46.096C28.9914 46.5298 29.3711 46.9845 29.3496 47.5303C29.3173 48.3539 28.4059 48.8243 27.619 48.9045C25.7216 49.0981 23.774 47.9969 22.9045 46.2388C22.8877 46.2049 22.8692 46.1707 22.8489 46.1363C22.3429 45.3006 22.0127 44.3706 21.8783 43.403C21.744 42.4354 21.8083 41.4506 22.0674 40.5087C22.1724 40.139 22.1457 39.8515 21.8965 39.7311C20.8197 39.2108 17.5761 39.6434 16.5362 40.2611C15.4962 40.8788 14.6176 41.7558 13.6071 42.4249C12.5964 43.094 11.3555 43.5548 10.2163 43.2031C9.30386 42.9215 8.59147 42.1492 8.15557 41.2684C7.71975 40.3876 7.52665 39.3987 7.36487 38.4195C9.28473 39.8582 12.1674 39.6976 13.9598 38.0522Z" fill="#2F2E41"/>
<path d="M168.545 8.88181H81.1457C81.0548 8.88017 80.9682 8.84837 80.9046 8.79325C80.841 8.73812 80.8054 8.66405 80.8054 8.5869C80.8054 8.50976 80.841 8.43568 80.9046 8.38055C80.9682 8.32543 81.0548 8.29364 81.1457 8.29199H168.545C168.636 8.29364 168.722 8.32543 168.786 8.38055C168.85 8.43568 168.885 8.50976 168.885 8.5869C168.885 8.66405 168.85 8.73812 168.786 8.79325C168.722 8.84837 168.636 8.88017 168.545 8.88181Z" fill="#CACACA"/>
<path d="M86.4153 6.45319C87.5649 6.45319 88.4969 5.50047 88.4969 4.32523C88.4969 3.14999 87.5649 2.19727 86.4153 2.19727C85.2657 2.19727 84.3337 3.14999 84.3337 4.32523C84.3337 5.50047 85.2657 6.45319 86.4153 6.45319Z" fill="#3F3D56"/>
<path d="M93.6062 6.45319C94.7559 6.45319 95.6878 5.50047 95.6878 4.32523C95.6878 3.14999 94.7559 2.19727 93.6062 2.19727C92.4566 2.19727 91.5247 3.14999 91.5247 4.32523C91.5247 5.50047 92.4566 6.45319 93.6062 6.45319Z" fill="#3F3D56"/>
<path d="M100.797 6.45319C101.947 6.45319 102.879 5.50047 102.879 4.32523C102.879 3.14999 101.947 2.19727 100.797 2.19727C99.6475 2.19727 98.7156 3.14999 98.7156 4.32523C98.7156 5.50047 99.6475 6.45319 100.797 6.45319Z" fill="#3F3D56"/>
<path d="M165.323 2.72461H160.215C160.114 2.72663 160.017 2.76826 159.946 2.84058C159.876 2.91289 159.836 3.01012 159.836 3.11138C159.836 3.21264 159.876 3.30987 159.946 3.38219C160.017 3.4545 160.114 3.49614 160.215 3.49815H165.323C165.424 3.49614 165.521 3.4545 165.592 3.38219C165.662 3.30987 165.702 3.21264 165.702 3.11138C165.702 3.01012 165.662 2.91289 165.592 2.84058C165.521 2.76826 165.424 2.72663 165.323 2.72461Z" fill="#3F3D56"/>
<path d="M165.323 4.17627H160.215C160.114 4.17829 160.017 4.21992 159.946 4.29224C159.876 4.36455 159.836 4.46178 159.836 4.56304C159.836 4.66431 159.876 4.76153 159.946 4.83385C160.017 4.90616 160.114 4.9478 160.215 4.94981H165.323C165.424 4.9478 165.521 4.90616 165.592 4.83385C165.662 4.76153 165.702 4.66431 165.702 4.56304C165.702 4.46178 165.662 4.36455 165.592 4.29224C165.521 4.21992 165.424 4.17829 165.323 4.17627Z" fill="#3F3D56"/>
<path d="M165.323 5.62646H160.215C160.114 5.62847 160.017 5.6701 159.946 5.74241C159.875 5.81473 159.836 5.91196 159.836 6.01324C159.836 6.11451 159.875 6.21174 159.946 6.28406C160.017 6.35637 160.114 6.398 160.215 6.4H165.323C165.424 6.398 165.521 6.35637 165.592 6.28406C165.662 6.21174 165.702 6.11451 165.702 6.01324C165.702 5.91196 165.662 5.81473 165.592 5.74241C165.521 5.6701 165.424 5.62847 165.323 5.62646Z" fill="#3F3D56"/>
<path d="M13.0646 77.4407L13.068 77.436L13.0646 77.4454V77.4407Z" fill="#2F2E41"/>
<path d="M135.761 22.8183C137.183 22.8183 138.335 21.6661 138.335 20.2448C138.335 18.8236 137.183 17.6714 135.761 17.6714C134.34 17.6714 133.188 18.8236 133.188 20.2448C133.188 21.6661 134.34 22.8183 135.761 22.8183Z" fill="#E6E7E8"/>
<path d="M157.452 25.9433H133.954C133.854 25.9435 133.754 25.9237 133.661 25.8853C133.568 25.8469 133.483 25.7904 133.412 25.7193C133.34 25.6481 133.284 25.5636 133.245 25.4705C133.207 25.3775 133.187 25.2777 133.187 25.177C133.187 25.0762 133.207 24.9765 133.245 24.8834C133.284 24.7904 133.34 24.7058 133.412 24.6347C133.483 24.5635 133.568 24.5071 133.661 24.4686C133.754 24.4302 133.854 24.4105 133.954 24.4106H157.452C157.552 24.4105 157.652 24.4302 157.745 24.4686C157.838 24.5071 157.923 24.5635 157.994 24.6347C158.066 24.7058 158.122 24.7904 158.161 24.8834C158.199 24.9765 158.219 25.0762 158.219 25.177C158.219 25.2777 158.199 25.3775 158.161 25.4705C158.122 25.5636 158.066 25.6481 157.994 25.7193C157.923 25.7904 157.838 25.8469 157.745 25.8853C157.652 25.9237 157.552 25.9435 157.452 25.9433Z" fill="#E6E7E8"/>
<path d="M139.79 28.9712H133.954C133.751 28.9712 133.556 28.8905 133.412 28.7467C133.269 28.603 133.188 28.4081 133.188 28.2048C133.188 28.0016 133.269 27.8067 133.412 27.6629C133.556 27.5192 133.751 27.4385 133.954 27.4385H139.79C139.994 27.4385 140.189 27.5192 140.332 27.6629C140.476 27.8067 140.557 28.0016 140.557 28.2048C140.557 28.4081 140.476 28.603 140.332 28.7467C140.189 28.8905 139.994 28.9712 139.79 28.9712Z" fill="#E6E7E8"/>
<path d="M135.761 62.9858C137.183 62.9858 138.335 61.8336 138.335 60.4123C138.335 58.991 137.183 57.8389 135.761 57.8389C134.34 57.8389 133.188 58.991 133.188 60.4123C133.188 61.8336 134.34 62.9858 135.761 62.9858Z" fill="#E6E7E8"/>
<path d="M157.452 66.1108H133.954C133.751 66.1108 133.556 66.03 133.412 65.8863C133.269 65.7426 133.188 65.5477 133.188 65.3444C133.188 65.1412 133.269 64.9463 133.412 64.8026C133.556 64.6589 133.751 64.5781 133.954 64.5781H157.452C157.655 64.5781 157.85 64.6589 157.993 64.8026C158.137 64.9463 158.218 65.1412 158.218 65.3444C158.218 65.5477 158.137 65.7426 157.993 65.8863C157.85 66.03 157.655 66.1108 157.452 66.1108Z" fill="#E6E7E8"/>
<path d="M139.79 69.1387H133.954C133.751 69.1387 133.556 69.0579 133.412 68.9142C133.269 68.7705 133.188 68.5756 133.188 68.3723C133.188 68.1691 133.269 67.9741 133.412 67.8304C133.556 67.6867 133.751 67.606 133.954 67.606H139.79C139.994 67.606 140.189 67.6867 140.332 67.8304C140.476 67.9741 140.557 68.1691 140.557 68.3723C140.557 68.5756 140.476 68.7705 140.332 68.9142C140.189 69.0579 139.994 69.1387 139.79 69.1387Z" fill="#E6E7E8"/>
<path d="M94.3435 56.8906C95.7648 56.8906 96.9169 55.7384 96.9169 54.3171C96.9169 52.8958 95.7648 51.7437 94.3435 51.7437C92.9222 51.7437 91.77 52.8958 91.77 54.3171C91.77 55.7384 92.9222 56.8906 94.3435 56.8906Z" fill="#E6E7E8"/>
<path d="M116.034 60.0156H92.5363C92.3331 60.0156 92.1382 59.9348 91.9945 59.7911C91.8508 59.6474 91.77 59.4525 91.77 59.2492C91.77 59.046 91.8508 58.8511 91.9945 58.7074C92.1382 58.5636 92.3331 58.4829 92.5363 58.4829H116.034C116.237 58.4829 116.432 58.5636 116.575 58.7074C116.719 58.8511 116.8 59.046 116.8 59.2492C116.8 59.4525 116.719 59.6474 116.575 59.7911C116.432 59.9348 116.237 60.0156 116.034 60.0156Z" fill="#E6E7E8"/>
<path d="M98.3724 63.044H92.5364C92.3331 63.044 92.1382 62.9632 91.9945 62.8195C91.8508 62.6758 91.77 62.4808 91.77 62.2776C91.77 62.0743 91.8508 61.8794 91.9945 61.7357C92.1382 61.592 92.3331 61.5112 92.5364 61.5112H98.3724C98.5757 61.5112 98.7706 61.592 98.9143 61.7357C99.058 61.8794 99.1388 62.0743 99.1388 62.2776C99.1388 62.4808 99.058 62.6758 98.9143 62.8195C98.7706 62.9632 98.5757 63.044 98.3724 63.044Z" fill="#E6E7E8"/>
<path d="M135.761 41.3881C137.183 41.3881 138.335 40.236 138.335 38.8147C138.335 37.3934 137.183 36.2412 135.761 36.2412C134.34 36.2412 133.188 37.3934 133.188 38.8147C133.188 40.236 134.34 41.3881 135.761 41.3881Z" fill="#E6E7E8"/>
<path d="M157.452 44.5131H133.954C133.751 44.5131 133.556 44.4324 133.412 44.2887C133.269 44.145 133.188 43.95 133.188 43.7468C133.188 43.5435 133.269 43.3486 133.412 43.2049C133.556 43.0612 133.751 42.9805 133.954 42.9805H157.452C157.655 42.9805 157.85 43.0612 157.993 43.2049C158.137 43.3486 158.218 43.5435 158.218 43.7468C158.218 43.95 158.137 44.145 157.993 44.2887C157.85 44.4324 157.655 44.5131 157.452 44.5131Z" fill="#E6E7E8"/>
<path d="M148.074 47.541H133.954C133.751 47.541 133.556 47.4603 133.412 47.3166C133.269 47.1728 133.188 46.9779 133.188 46.7747C133.188 46.5714 133.269 46.3765 133.412 46.2328C133.556 46.089 133.751 46.0083 133.954 46.0083H148.074C148.277 46.0083 148.472 46.089 148.616 46.2328C148.76 46.3765 148.84 46.5714 148.84 46.7747C148.84 46.9779 148.76 47.1728 148.616 47.3166C148.472 47.4603 148.277 47.541 148.074 47.541Z" fill="#E6E7E8"/>
<path d="M144.14 50.5693H133.954C133.751 50.5693 133.556 50.4886 133.412 50.3449C133.269 50.2012 133.188 50.0062 133.188 49.803C133.188 49.5997 133.269 49.4048 133.412 49.2611C133.556 49.1174 133.751 49.0366 133.954 49.0366H144.14C144.343 49.0366 144.538 49.1174 144.682 49.2611C144.825 49.4048 144.906 49.5997 144.906 49.803C144.906 50.0062 144.825 50.2012 144.682 50.3449C144.538 50.4886 144.343 50.5693 144.14 50.5693Z" fill="#E6E7E8"/>
<path d="M112.298 22.0913V49.1105C112.298 49.299 112.223 49.4798 112.09 49.6132C111.957 49.7466 111.776 49.8218 111.587 49.8223H97.351C95.776 48.3617 94.4838 46.6231 93.5394 44.6938C93.4772 44.5695 93.418 44.4443 93.3617 44.3171C92.5011 42.4499 91.9802 40.4442 91.8234 38.3943C91.8128 38.268 91.804 38.1427 91.7982 38.0155C91.7788 37.6902 91.77 37.36 91.77 37.0289C91.7672 34.8247 92.1834 32.6401 92.9965 30.5914C93.0451 30.4642 93.0966 30.3379 93.15 30.2126C94.2206 27.6953 95.8667 25.4642 97.956 23.6984C98.0803 23.5926 98.2059 23.4897 98.3328 23.3896L98.362 23.3663C99.9969 22.0719 102.023 21.3707 104.108 21.3775H111.587C111.776 21.3781 111.957 21.4536 112.091 21.5874C112.224 21.7212 112.299 21.9024 112.298 22.0913Z" fill="#FFC232"/>
<path opacity="0.2" d="M112.336 30.5913V30.2126H105.987V21.3774H105.609V30.2126H98.3327V23.3896C98.2055 23.4896 98.0799 23.5925 97.9559 23.6984V30.2126H93.1499C93.0965 30.3379 93.045 30.4641 92.9964 30.5913H97.9559V38.0155H91.7981C91.8039 38.1427 91.8127 38.268 91.8233 38.3942H97.9559V44.317H93.3616C93.4179 44.4442 93.4771 44.5695 93.5393 44.6938H97.9559V49.6727H98.3327V44.6938H105.609V49.6727H105.987V44.6938H112.336V44.317H105.987C105.987 43.5392 106.14 42.7689 106.438 42.0503C106.735 41.3316 107.171 40.6786 107.721 40.1286C108.271 39.5786 108.924 39.1423 109.643 38.8447C110.362 38.5471 111.132 38.3941 111.91 38.3942H112.336V38.0155H105.987V30.5913H112.336ZM105.609 44.317H98.3327V38.3942H105.609V44.317ZM105.609 38.0155H98.3327V37.8669C98.3328 36.9114 98.521 35.9653 98.8867 35.0825C99.2525 34.1998 99.7885 33.3977 100.464 32.7221C101.14 32.0465 101.942 31.5106 102.825 31.145C103.708 30.7794 104.654 30.5913 105.609 30.5913V38.0155Z" fill="black"/>
<path d="M111.62 44.4128C111.468 44.4198 111.317 44.3798 111.188 44.2983C111.06 44.2168 110.959 44.0977 110.9 43.9571C110.842 43.8165 110.827 43.6613 110.86 43.5124C110.892 43.3635 110.97 43.2282 111.082 43.1247C111.1 43.0502 111.114 42.9968 111.132 42.9223C111.126 42.9061 111.119 42.8899 111.112 42.8737C110.428 41.2423 106.062 45.79 105.874 47.3232C105.79 48.001 105.826 48.688 105.977 49.3537C104.563 46.269 103.829 42.9162 103.824 39.5228C103.824 38.6713 103.871 37.8204 103.966 36.9741C104.044 36.2804 104.153 35.5916 104.292 34.9077C105.049 31.1971 106.677 27.7191 109.04 24.7596C110.391 24.835 111.576 24.6291 111.69 22.0099C111.71 21.544 112.056 21.1406 112.132 20.6817C112.003 20.6986 111.872 20.7092 111.743 20.7176C111.703 20.7197 111.66 20.7218 111.62 20.724L111.605 20.7246C111.463 20.731 111.323 20.6963 111.2 20.6246C111.078 20.5529 110.979 20.4473 110.915 20.3205C110.851 20.1938 110.825 20.0513 110.84 19.9102C110.855 19.769 110.911 19.6353 111 19.5251C111.056 19.4566 111.112 19.388 111.168 19.3196C111.252 19.2138 111.339 19.1102 111.424 19.0044C111.433 18.9944 111.443 18.9838 111.451 18.9727C111.548 18.8521 111.646 18.7337 111.743 18.6131C111.565 18.3375 111.326 18.1066 111.045 17.9384C110.07 17.3673 108.725 17.7629 108.02 18.6448C107.314 19.5268 107.181 20.7642 107.426 21.8661C107.667 22.8038 108.066 23.6935 108.606 24.4973C108.553 24.565 108.498 24.6305 108.446 24.6982C107.479 25.9411 106.636 27.2758 105.93 28.6831C106.13 27.1223 103.687 21.4857 102.742 20.2918C101.607 18.8577 99.2793 19.4836 99.0793 21.3015C99.0774 21.3191 99.0755 21.3367 99.0736 21.3543C99.214 21.4334 99.3514 21.5175 99.4858 21.6064C99.6547 21.7192 99.7855 21.8804 99.8612 22.0689C99.9369 22.2574 99.9539 22.4643 99.9099 22.6626C99.866 22.8609 99.7632 23.0413 99.615 23.1801C99.4668 23.319 99.2801 23.4098 99.0794 23.4408L99.0588 23.444C97.1801 26.1264 103.203 33.1081 104.71 31.5405C104.001 33.5513 103.556 35.6459 103.386 37.7715C103.29 39.0256 103.296 40.2853 103.403 41.5385L103.397 41.4941C103.062 38.7647 97.3155 34.7067 95.6375 35.0447C94.6708 35.2394 93.7187 35.1952 93.8655 36.1702C93.8679 36.1858 93.8702 36.2014 93.8726 36.2169C94.1331 36.323 94.3867 36.4452 94.6319 36.5828C94.7723 36.662 94.9097 36.7461 95.0441 36.835C95.213 36.9478 95.3438 37.109 95.4195 37.2975C95.4952 37.4859 95.5122 37.6929 95.4683 37.8912C95.4243 38.0895 95.3215 38.2699 95.1733 38.4087C95.0251 38.5476 94.8384 38.6384 94.6377 38.6694L94.6171 38.6725C94.6023 38.6747 94.5896 38.6768 94.5748 38.6789C93.7197 41.6214 100.062 46.3702 103.917 44.8592H103.919C104.301 46.5195 104.855 48.1356 105.571 49.6815H111.472C111.493 49.616 111.512 49.5483 111.531 49.4827C110.985 49.5171 110.437 49.4844 109.899 49.3854C110.336 48.8482 110.774 48.3067 111.212 47.7695C111.222 47.7595 111.231 47.7489 111.24 47.7378C111.462 47.4628 111.686 47.19 111.908 46.915L111.908 46.9147C111.92 46.0719 111.823 45.231 111.62 44.4129L111.62 44.4128ZM104.863 31.1196L104.866 31.1154L104.863 31.1238V31.1196ZM103.555 42.9027L103.505 42.7885C103.507 42.706 103.507 42.6235 103.505 42.5389C103.505 42.5156 103.501 42.4924 103.501 42.4691C103.52 42.615 103.536 42.761 103.558 42.9069L103.555 42.9027Z" fill="#2F2E41"/>
<path d="M153.5 68.1434L152.213 68.6253C152.111 68.6629 152.043 68.762 152.043 68.8713C152.043 68.9807 152.111 69.0798 152.213 69.1174L153.5 69.5993L153.981 70.8877C154.019 70.9902 154.118 71.0586 154.227 71.0586C154.336 71.0586 154.435 70.9902 154.473 70.8877L154.954 69.5993L156.241 69.1174C156.343 69.0798 156.412 68.9807 156.412 68.8713C156.412 68.762 156.343 68.6629 156.241 68.6253L154.954 68.1434L154.473 66.855C154.435 66.7524 154.336 66.6841 154.227 66.6841C154.118 66.6841 154.019 66.7524 153.981 66.855L153.5 68.1434ZM147.063 80.1972C146.424 80.8363 146.424 81.8752 147.063 82.5177L148.244 83.7002C148.882 84.3393 149.919 84.3393 150.561 83.7002L163.576 70.6656C164.214 70.0265 164.214 68.9875 163.576 68.345L162.395 67.166C161.757 66.5269 160.719 66.5269 160.078 67.166L147.063 80.1972ZM162.03 69.507L158.446 73.0955L157.651 72.2992L161.235 68.7107L162.03 69.507ZM145.745 70.6895C145.591 70.7476 145.489 70.8945 145.489 71.0586C145.489 71.2226 145.591 71.3696 145.745 71.4277L147.674 72.1522L148.397 74.0831C148.455 74.2369 148.602 74.3395 148.766 74.3395C148.93 74.3395 149.076 74.2369 149.134 74.0831L149.858 72.1522L151.787 71.4277C151.94 71.3696 152.043 71.2226 152.043 71.0586C152.043 70.8945 151.94 70.7476 151.787 70.6895L149.858 69.965L149.134 68.034C149.076 67.8802 148.93 67.7777 148.766 67.7777C148.602 67.7777 148.455 67.8802 148.397 68.034L147.674 69.965L145.745 70.6895ZM157.76 79.4385C157.606 79.4966 157.504 79.6435 157.504 79.8076C157.504 79.9716 157.606 80.1186 157.76 80.1767L159.688 80.9012L160.412 82.8321C160.47 82.9859 160.617 83.0885 160.781 83.0885C160.944 83.0885 161.091 82.9859 161.149 82.8321L161.873 80.9012L163.801 80.1767C163.955 80.1186 164.057 79.9716 164.057 79.8076C164.057 79.6435 163.955 79.4966 163.801 79.4385L161.873 78.714L161.149 76.783C161.091 76.6292 160.944 76.5267 160.781 76.5267C160.617 76.5267 160.47 76.6292 160.412 76.783L159.688 78.714L157.76 79.4385Z" fill="#228AC7"/>
</g>
<defs>
<clipPath id="clip0_1_130">
<rect width="170" height="124" fill="white"/>
</clipPath>
</defs>
</svg>
