<svg width="171" height="115" viewBox="0 0 171 115" fill="none" xmlns="http://www.w3.org/2000/svg">
<g clip-path="url(#clip0_1_202)">
<path d="M109.168 114.812V100.211C109.168 100.211 114.858 110.562 109.168 114.812Z" fill="#F1F1F1"/>
<path d="M109.519 114.809L98.7622 104.935C98.7622 104.935 110.237 107.744 109.519 114.809Z" fill="#F1F1F1"/>
<path d="M1.10547 84.7798V5.15796H170.033V84.7798H1.10547Z" fill="#EFEFEF" stroke="#DEDEDE"/>
<path d="M165.674 11.5715H5.4646V78.8368H165.674V11.5715Z" fill="white"/>
<path d="M170.46 0H0.532959V7.21798H170.46V0Z" fill="#DEDEDE"/>
<path d="M5.89759 4.93345C6.63656 4.93345 7.23561 4.33448 7.23561 3.59562C7.23561 2.85676 6.63656 2.2578 5.89759 2.2578C5.15862 2.2578 4.55957 2.85676 4.55957 3.59562C4.55957 4.33448 5.15862 4.93345 5.89759 4.93345Z" fill="white"/>
<path d="M10.9763 4.93345C11.7153 4.93345 12.3143 4.33448 12.3143 3.59562C12.3143 2.85676 11.7153 2.2578 10.9763 2.2578C10.2374 2.2578 9.63831 2.85676 9.63831 3.59562C9.63831 4.33448 10.2374 4.93345 10.9763 4.93345Z" fill="white"/>
<path d="M16.0552 4.93345C16.7941 4.93345 17.3932 4.33448 17.3932 3.59562C17.3932 2.85676 16.7941 2.2578 16.0552 2.2578C15.3162 2.2578 14.7172 2.85676 14.7172 3.59562C14.7172 4.33448 15.3162 4.93345 16.0552 4.93345Z" fill="white"/>
<path d="M31.7123 26.8844C31.5373 26.8844 31.3695 26.9539 31.2458 27.0776C31.1221 27.2013 31.0526 27.3691 31.0526 27.544C31.0526 27.7189 31.1221 27.8867 31.2458 28.0104C31.3695 28.1341 31.5373 28.2036 31.7123 28.2036H49.7369C49.9119 28.2036 50.0797 28.1341 50.2034 28.0104C50.3271 27.8867 50.3966 27.7189 50.3966 27.544C50.3966 27.3691 50.3271 27.2013 50.2034 27.0776C50.0797 26.9539 49.9119 26.8844 49.7369 26.8844H31.7123Z" fill="#228AC7"/>
<path d="M21.5183 35.9668C21.3434 35.9668 21.1756 36.0363 21.0519 36.16C20.9281 36.2837 20.8586 36.4514 20.8586 36.6263C20.8586 36.8013 20.9281 36.969 21.0519 37.0927C21.1756 37.2164 21.3434 37.2859 21.5183 37.2859H59.9308C60.1057 37.2859 60.2735 37.2164 60.3972 37.0927C60.521 36.969 60.5905 36.8013 60.5905 36.6263C60.5905 36.4514 60.521 36.2837 60.3972 36.16C60.2735 36.0363 60.1057 35.9668 59.9308 35.9668H21.5183Z" fill="#CCCCCC"/>
<path d="M21.5183 41.2144C21.3434 41.2144 21.1756 41.2838 21.0519 41.4075C20.9281 41.5312 20.8586 41.699 20.8586 41.8739C20.8586 42.0489 20.9281 42.2166 21.0519 42.3403C21.1756 42.464 21.3434 42.5335 21.5183 42.5335H59.9308C60.1057 42.5335 60.2735 42.464 60.3972 42.3403C60.521 42.2166 60.5905 42.0489 60.5905 41.8739C60.5905 41.699 60.521 41.5312 60.3972 41.4075C60.2735 41.2838 60.1057 41.2144 59.9308 41.2144H21.5183Z" fill="#CCCCCC"/>
<path d="M21.5183 46.4619C21.3434 46.4619 21.1756 46.5314 21.0519 46.6551C20.9281 46.7788 20.8586 46.9466 20.8586 47.1215C20.8586 47.2965 20.9281 47.4642 21.0519 47.5879C21.1756 47.7116 21.3434 47.7811 21.5183 47.7811H59.9308C60.1057 47.7811 60.2735 47.7116 60.3972 47.5879C60.521 47.4642 60.5905 47.2965 60.5905 47.1215C60.5905 46.9466 60.521 46.7788 60.3972 46.6551C60.2735 46.5314 60.1057 46.4619 59.9308 46.4619H21.5183Z" fill="#CCCCCC"/>
<path d="M21.5183 51.7095C21.3434 51.7095 21.1756 51.779 21.0519 51.9027C20.9281 52.0264 20.8586 52.1942 20.8586 52.3691C20.8586 52.544 20.9281 52.7118 21.0519 52.8355C21.1756 52.9592 21.3434 53.0287 21.5183 53.0287H59.9308C60.1057 53.0287 60.2735 52.9592 60.3972 52.8355C60.521 52.7118 60.5905 52.544 60.5905 52.3691C60.5905 52.1942 60.521 52.0264 60.3972 51.9027C60.2735 51.779 60.1057 51.7095 59.9308 51.7095H21.5183Z" fill="#CCCCCC"/>
<path d="M21.5183 56.9571C21.3434 56.9571 21.1756 57.0266 21.0519 57.1503C20.9281 57.274 20.8586 57.4418 20.8586 57.6167C20.8586 57.7916 20.9281 57.9594 21.0519 58.0831C21.1756 58.2068 21.3434 58.2763 21.5183 58.2763H59.9308C60.1057 58.2763 60.2735 58.2068 60.3972 58.0831C60.521 57.9594 60.5905 57.7916 60.5905 57.6167C60.5905 57.4418 60.521 57.274 60.3972 57.1503C60.2735 57.0266 60.1057 56.9571 59.9308 56.9571H21.5183Z" fill="#CCCCCC"/>
<path d="M21.5183 62.2047C21.3434 62.2047 21.1756 62.2742 21.0519 62.3979C20.9281 62.5216 20.8586 62.6894 20.8586 62.8643C20.8586 63.0392 20.9281 63.207 21.0519 63.3307C21.1756 63.4544 21.3434 63.5239 21.5183 63.5239H59.9308C60.1057 63.5239 60.2735 63.4544 60.3972 63.3307C60.521 63.207 60.5905 63.0392 60.5905 62.8643C60.5905 62.6894 60.521 62.5216 60.3972 62.3979C60.2735 62.2742 60.1057 62.2047 59.9308 62.2047H21.5183Z" fill="#CCCCCC"/>
<path d="M148.235 63.8062H90.0792C89.6905 63.8058 89.3178 63.6512 89.0429 63.3764C88.7681 63.1016 88.6135 62.729 88.613 62.3403V28.1357C88.6135 27.7471 88.7681 27.3744 89.0429 27.0996C89.3178 26.8248 89.6905 26.6702 90.0792 26.6698H148.235C148.624 26.6702 148.997 26.8248 149.272 27.0996C149.547 27.3744 149.701 27.7471 149.702 28.1357V62.3403C149.701 62.729 149.547 63.1016 149.272 63.3764C148.997 63.6512 148.624 63.8058 148.235 63.8062Z" fill="#F1F1F1"/>
<path d="M155.886 71.6296H97.7297C97.341 71.6292 96.9683 71.4746 96.6934 71.1997C96.4186 70.9249 96.264 70.5523 96.2635 70.1637V35.959C96.264 35.5704 96.4186 35.1978 96.6934 34.923C96.9683 34.6481 97.341 34.4936 97.7297 34.4931H155.886C156.275 34.4936 156.647 34.6481 156.922 34.923C157.197 35.1978 157.352 35.5704 157.352 35.959V70.1637C157.352 70.5523 157.197 70.9249 156.922 71.1997C156.647 71.4746 156.275 71.6292 155.886 71.6296Z" fill="white"/>
<path d="M155.886 72.1284H97.7297C97.2087 72.1278 96.7092 71.9206 96.3408 71.5523C95.9725 71.1839 95.7652 70.6845 95.7646 70.1636V35.9591C95.7652 35.4382 95.9725 34.9388 96.3408 34.5705C96.7092 34.2021 97.2087 33.9949 97.7297 33.9943H155.886C156.407 33.9949 156.906 34.2021 157.275 34.5704C157.643 34.9388 157.85 35.4382 157.851 35.9591V70.1636C157.85 70.6845 157.643 71.1839 157.275 71.5523C156.906 71.9206 156.407 72.1278 155.886 72.1284ZM97.7297 34.992C97.4732 34.9923 97.2274 35.0943 97.0461 35.2756C96.8647 35.4569 96.7627 35.7027 96.7625 35.9591V70.1636C96.7627 70.42 96.8647 70.6658 97.0461 70.8472C97.2274 71.0285 97.4732 71.1305 97.7297 71.1308H155.886C156.142 71.1305 156.388 71.0285 156.57 70.8472C156.751 70.6658 156.853 70.42 156.853 70.1636V35.9591C156.853 35.7027 156.751 35.4569 156.57 35.2756C156.388 35.0943 156.142 34.9923 155.886 34.992H97.7297Z" fill="#3F3D56"/>
<path d="M126.729 62.6542C129.517 62.6542 131.776 60.3952 131.776 57.6085C131.776 54.8218 129.517 52.5627 126.729 52.5627C123.942 52.5627 121.683 54.8218 121.683 57.6085C121.683 60.3952 123.942 62.6542 126.729 62.6542Z" fill="#FF6583"/>
<path d="M136.465 52.7542C136.168 52.4391 135.811 52.1866 135.414 52.0115C135.018 51.8364 134.591 51.7422 134.158 51.7345C133.725 51.7267 133.295 51.8056 132.893 51.9665C132.491 52.1273 132.125 52.3669 131.817 52.6711L115.45 69.0356C113.354 71.1416 111.165 67.9205 109.767 66.6216C106.404 63.2959 102.771 69.5318 100.51 71.3175H153.105V70.6481L136.465 52.7542Z" fill="#78C60E"/>
<path d="M71.6338 72.5904L70.7488 60.3285L72.3382 48.8379L67.8241 48.5332L66.9331 61.226L69.4514 73.1622C69.2369 73.4587 69.1192 73.8141 69.1145 74.18C69.1098 74.5459 69.2182 74.9042 69.425 75.2061C69.6317 75.508 69.9267 75.7387 70.2696 75.8666C70.6124 75.9944 70.9864 76.0133 71.3404 75.9205C71.6944 75.8278 72.0111 75.628 72.2472 75.3484C72.4833 75.0688 72.6272 74.7232 72.6593 74.3587C72.6914 73.9942 72.6101 73.6287 72.4266 73.3122C72.243 72.9957 71.9661 72.7436 71.6338 72.5904Z" fill="#995660"/>
<path d="M67.2483 50.1846L68.3083 45.5979C68.5112 44.7195 69.0425 43.9521 69.7932 43.4527C70.5438 42.9534 71.4571 42.76 72.3457 42.9121C73.2344 43.0643 74.0313 43.5505 74.573 44.2711C75.1147 44.9918 75.3603 45.8922 75.2594 46.7881L74.6757 51.9709L67.2483 50.1846Z" fill="#CBCBCB"/>
<path d="M75.6051 112.54H77.7331L78.7455 104.333L75.6047 104.333L75.6051 112.54Z" fill="#995660"/>
<path d="M75.0621 111.845L79.2531 111.845C79.9614 111.845 80.6409 112.127 81.1417 112.627C81.6426 113.128 81.924 113.807 81.9241 114.515V114.602L75.0623 114.603L75.0621 111.845Z" fill="#2F2E41"/>
<path d="M86.207 112.47L88.2528 111.884L86.9659 103.716L83.9465 104.581L86.207 112.47Z" fill="#995660"/>
<path d="M85.4939 111.952L89.5228 110.798C90.2037 110.603 90.9344 110.686 91.5538 111.03C92.1733 111.373 92.6308 111.949 92.8259 112.63L92.8498 112.713L86.2533 114.603L85.4939 111.952Z" fill="#2F2E41"/>
<path d="M74.4548 109.561L75.4448 84.7L72.8739 73.4491C69.4143 67.6495 73.1466 58.3986 73.1847 58.3058L73.1986 58.272L73.2349 58.267L82.2847 57.0411L82.4118 57.3328C85.9515 65.4243 86.9338 74.4041 85.2272 83.0694L84.2853 87.8862L88.9405 106.679L84.5347 108.881L81.1545 100.117L78.8696 109.084L74.4548 109.561Z" fill="#228AC7"/>
<path d="M71.9928 60.6117L69.0404 51.9622C67.205 48.7305 68.3692 45.8614 69.6691 44.0236C71.0728 42.0391 71.1571 40.9262 71.1757 40.9139L71.1907 40.9039L75.0696 40.7864L78.6596 44.4338C78.8854 44.3456 80.7928 49.0455 80.6311 49.2818L83.1384 57.3857L71.9928 60.6117Z" fill="#E2E2E2"/>
<path d="M95.8983 62.1075L86.1727 54.5857L78.6727 45.7356L75.434 48.8943L84.2957 58.0264L94.8682 64.1145C94.946 64.472 95.1324 64.7968 95.4018 65.0444C95.6712 65.292 96.0105 65.4503 96.3734 65.4978C96.7362 65.5452 97.1049 65.4794 97.4289 65.3094C97.7529 65.1393 98.0165 64.8733 98.1836 64.5478C98.3507 64.2223 98.4131 63.8531 98.3623 63.4908C98.3115 63.1284 98.15 62.7906 97.8999 62.5235C97.6498 62.2564 97.3233 62.0731 96.965 61.9986C96.6067 61.9242 96.2342 61.9622 95.8983 62.1075Z" fill="#995660"/>
<path d="M74.5135 52.0945L71.8036 48.2448C71.2847 47.5076 71.0673 46.5999 71.1962 45.7076C71.325 44.8154 71.7902 44.0062 72.4965 43.4458C73.2027 42.8855 74.0966 42.6164 74.9949 42.6938C75.8932 42.7711 76.7279 43.189 77.328 43.8618L80.7998 47.7545L74.5135 52.0945Z" fill="#E2E2E2"/>
<path d="M72.674 39.7259C75.2179 39.7259 77.2802 37.664 77.2802 35.1204C77.2802 32.5768 75.2179 30.5148 72.674 30.5148C70.13 30.5148 68.0677 32.5768 68.0677 35.1204C68.0677 37.664 70.13 39.7259 72.674 39.7259Z" fill="#995660"/>
<path d="M77.3576 32.7839H70.0435V29.5961C71.6488 28.9584 73.2198 28.4161 74.1694 29.5961C75.0149 29.5961 75.8259 29.932 76.4238 30.5298C77.0217 31.1276 77.3576 31.9384 77.3576 32.7839Z" fill="#2F2E41"/>
<path d="M71.0516 28.8318C64.3502 28.6488 65.6192 39.6873 65.6192 39.6873C65.6192 39.6873 66.8835 39.8545 67.4604 39.9527L68.1571 39.5604L68.9068 40.0521C69.2511 40.0538 69.6127 40.0471 69.9876 40.0401L70.3313 39.3326L71.0976 40.0275C72.4926 40.0295 76.2786 40.068 76.2786 40.068C76.2786 40.068 78.5602 29.0368 71.0516 28.8318Z" fill="#2F2E41"/>
<path d="M125.319 114.726H48.4104C48.3568 114.726 48.3055 114.705 48.2676 114.667C48.2298 114.629 48.2085 114.578 48.2085 114.525C48.2085 114.471 48.2298 114.42 48.2676 114.382C48.3055 114.344 48.3568 114.323 48.4104 114.323H125.319C125.372 114.323 125.424 114.344 125.462 114.382C125.499 114.42 125.521 114.471 125.521 114.525C125.521 114.578 125.499 114.629 125.462 114.667C125.424 114.705 125.372 114.726 125.319 114.726Z" fill="#CBCBCB"/>
</g>
<defs>
<clipPath id="clip0_1_202">
<rect width="170" height="114.812" fill="white" transform="translate(0.532959)"/>
</clipPath>
</defs>
</svg>
