<svg width="843" height="569" viewBox="0 0 843 569" fill="none" xmlns="http://www.w3.org/2000/svg">
<g clip-path="url(#clip0_181_2264)">
<path d="M538.17 568.853V496.513C538.17 496.513 566.362 547.799 538.17 568.853Z" fill="#F1F1F1"/>
<path d="M842 0H0V569H842V0Z" fill="#E5E5E5"/>
<path d="M818 57H24V569H818V57Z" fill="white"/>
<path d="M841.811 0H0V35.7626H841.811V0Z" fill="#6C63FF"/>
<path d="M26.5757 24.4435C30.2365 24.4435 33.2042 21.4758 33.2042 17.815C33.2042 14.1542 30.2365 11.1865 26.5757 11.1865C22.9149 11.1865 19.9473 14.1542 19.9473 17.815C19.9473 21.4758 22.9149 24.4435 26.5757 24.4435Z" fill="white"/>
<path d="M51.7359 24.4435C55.3967 24.4435 58.3644 21.4758 58.3644 17.815C58.3644 14.1542 55.3967 11.1865 51.7359 11.1865C48.0751 11.1865 45.1074 14.1542 45.1074 17.815C45.1074 21.4758 48.0751 24.4435 51.7359 24.4435Z" fill="white"/>
<path d="M76.896 24.4435C80.5568 24.4435 83.5245 21.4758 83.5245 17.815C83.5245 14.1542 80.5568 11.1865 76.896 11.1865C73.2352 11.1865 70.2676 14.1542 70.2676 17.815C70.2676 21.4758 73.2352 24.4435 76.896 24.4435Z" fill="white"/>
<path d="M46 706.798H45V696.711H46V686.623H45V676.535H46V666.447H45V656.36H46V646.272H45V636.184H46V626.096H45V616.009H46V605.921H45V595.833H46V585.746H45V575.658H46V565.57H45V555.482H46V545.395H45V535.307H46V525.219H45V515.132H46V505.044H45V494.956H46V484.868H45V474.781H46V464.693H45V454.605H46V444.517H45V434.43H46V424.342H45V414.254H46V404.167H45V394.079H46V383.991H45V373.904H46V363.816H45V353.728H46V343.64H45V333.553H46V323.465H45V313.377H46V303.29H45V293.202H46V288.158C46.0013 287.027 46.1139 285.907 46.3318 284.813L45.3511 284.618C45.8169 282.281 46.7372 280.057 48.0589 278.076L48.8908 278.631C49.5097 277.703 50.2218 276.831 51.0209 276.031C51.8192 275.23 52.6882 274.518 53.613 273.898L53.0564 273.067C55.0337 271.742 57.2526 270.819 59.5851 270.352L59.7815 271.333C60.8731 271.114 61.991 271.001 63.1206 271H68.1115V270H78.0942V271H88.077V270H98.0598V271H108.043V270H118.025V271H128.008V270H137.991V271H147.974V270H157.956V271H167.939V270H177.922V271H187.905V270H197.888V271H207.87V270H217.853V271H227.836V270H237.819V271H247.801V270H257.784V271H267.767V270H277.75V271H287.732V270H297.715V271H307.698V270H317.681V271H327.664V270H337.646V271H347.629V270H357.612V271H367.595V270H377.578V271H387.56V270H397.543V271H407.526V270H417.509V271H427.491V270H437.474V271H447.457V270H457.44V271H467.423V270H477.405V271H487.388V270H497.371V271H507.354V270H517.337V271H527.319V270H537.302V271H547.285V270H557.268V271H567.25V270H577.233V271H587.216V270H597.199V271H607.182V270H617.164V271H627.147V270H637.13V271H647.113V270H657.096V271H667.078V270H677.061V271H687.044V270H697.027V271H707.01V270H716.992V271H726.975V270H736.958V271H746.941V270H756.923V271H766.906V270H776.889V271H781.879C783.009 271.001 784.127 271.114 785.219 271.333L785.415 270.352C787.747 270.819 789.966 271.742 791.944 273.067L791.387 273.898C792.312 274.518 793.181 275.23 793.979 276.031C794.778 276.831 795.49 277.703 796.109 278.631L796.941 278.076C798.263 280.057 799.183 282.281 799.649 284.618L798.668 284.813C798.886 285.907 798.999 287.027 799 288.159V293.202H800V303.289H799V313.377H800V323.465H799V333.553H800V343.64H799V353.728H800V363.816H799V373.904H800V383.991H799V394.079H800V404.167H799V414.254H800V424.342H799V434.43H800V444.518H799V454.605H800V464.693H799V474.781H800V484.868H799V494.956H800V505.044H799V515.132H800V525.219H799V535.307H800V545.395H799V555.483H800V565.57H799V575.658H800V585.746H799V595.833H800V605.921H799V616.009H800V626.096H799V636.184H800V646.272H799V656.36H800V666.447H799V676.535H800V686.623H799V696.71H800V706.798H799V711.841C798.999 712.973 798.886 714.093 798.668 715.186L799.649 715.382C799.183 717.719 798.263 719.943 796.941 721.924L796.109 721.369C795.49 722.297 794.778 723.169 793.979 723.969C793.181 724.77 792.312 725.482 791.387 726.102L791.944 726.933C789.966 728.258 787.747 729.18 785.415 729.648L785.219 728.667C784.127 728.886 783.009 728.999 781.879 729H776.889V730H766.906V729H756.923V730H746.94V729H736.957V730H726.975V729H716.992V730H707.009V729H697.026V730H687.044V729H677.061V730H667.078V729H657.095V730H647.112V729H637.13V730H627.147V729H617.164V730H607.181V729H597.199V730H587.216V729H577.233V730H567.25V729H557.268V730H547.285V729H537.302V730H527.319V729H517.336V730H507.354V729H497.371V730H487.388V729H477.405V730H467.422V729H457.44V730H447.457V729H437.474V730H427.491V729H417.509V730H407.526V729H397.543V730H387.56V729H377.577V730H367.595V729H357.612V730H347.629V729H337.646V730H327.663V729H317.681V730H307.698V729H297.715V730H287.732V729H277.75V730H267.767V729H257.784V730H247.801V729H237.818V730H227.836V729H217.853V730H207.87V729H197.887V730H187.904V729H177.922V730H167.939V729H157.956V730H147.973V729H137.99V730H128.008V729H118.025V730H108.042V729H98.0593V730H88.0766V729H78.0937V730H68.111V729H63.1212C61.9914 728.999 60.8733 728.886 59.7815 728.667L59.5851 729.648C57.2526 729.18 55.0337 728.258 53.0564 726.933L53.613 726.102C52.6882 725.482 51.8192 724.77 51.0209 723.969C50.2218 723.169 49.5097 722.297 48.8908 721.369L48.0589 721.924C46.7372 719.943 45.8169 717.719 45.3511 715.382L46.3318 715.186C46.1139 714.093 46.0013 712.973 46 711.842V706.798Z" stroke="#8E8E8E" stroke-width="2" stroke-dasharray="10 10"/>
<path d="M419.5 463V450.5H407V447.5H419.5V435H422.5V447.5H435V450.5H422.5V463H419.5Z" fill="black"/>
<rect x="45" y="74" width="755" height="184" rx="14" fill="#F1F1F1"/>
<path d="M421.5 180V167.5H409V164.5H421.5V152H424.5V164.5H437V167.5H424.5V180H421.5Z" fill="black"/>
<path d="M1.5 1.5H840.5V567.5H1.5V1.5Z" stroke="black" stroke-width="3"/>
</g>
<defs>
<clipPath id="clip0_181_2264">
<rect width="842.17" height="568.852" fill="white"/>
</clipPath>
</defs>
</svg>
