<svg width="843" height="569" viewBox="0 0 843 569" fill="none" xmlns="http://www.w3.org/2000/svg">
<g clip-path="url(#clip0_181_2231)">
<path d="M538.17 568.853V496.513C538.17 496.513 566.362 547.799 538.17 568.853Z" fill="#F1F1F1"/>
<path d="M842 0H0V569H842V0Z" fill="#E5E5E5"/>
<path d="M818 57H24V569H818V57Z" fill="white"/>
<path d="M841.811 0H0V35.7626H841.811V0Z" fill="#6C63FF"/>
<path d="M26.5757 24.4435C30.2365 24.4435 33.2042 21.4758 33.2042 17.815C33.2042 14.1542 30.2365 11.1865 26.5757 11.1865C22.9149 11.1865 19.9473 14.1542 19.9473 17.815C19.9473 21.4758 22.9149 24.4435 26.5757 24.4435Z" fill="white"/>
<path d="M51.7359 24.4435C55.3967 24.4435 58.3644 21.4758 58.3644 17.815C58.3644 14.1542 55.3967 11.1865 51.7359 11.1865C48.0751 11.1865 45.1074 14.1542 45.1074 17.815C45.1074 21.4758 48.0751 24.4435 51.7359 24.4435Z" fill="white"/>
<path d="M76.896 24.4435C80.5568 24.4435 83.5245 21.4758 83.5245 17.815C83.5245 14.1542 80.5568 11.1865 76.896 11.1865C73.2352 11.1865 70.2676 14.1542 70.2676 17.815C70.2676 21.4758 73.2352 24.4435 76.896 24.4435Z" fill="white"/>
<path d="M154.46 326.063C153.594 326.063 152.762 326.408 152.15 327.021C151.537 327.634 151.192 328.465 151.192 329.331C151.192 330.198 151.537 331.029 152.15 331.642C152.762 332.255 153.594 332.599 154.46 332.599H243.753C244.62 332.599 245.451 332.255 246.064 331.642C246.677 331.029 247.021 330.198 247.021 329.331C247.021 328.465 246.677 327.634 246.064 327.021C245.451 326.408 244.62 326.063 243.753 326.063H154.46Z" fill="#3F3D56"/>
<path d="M103.96 371.063C103.094 371.063 102.262 371.408 101.65 372.021C101.037 372.634 100.692 373.465 100.692 374.331C100.692 375.198 101.037 376.029 101.65 376.642C102.262 377.255 103.094 377.599 103.96 377.599H294.253C295.12 377.599 295.951 377.255 296.564 376.642C297.177 376.029 297.521 375.198 297.521 374.331C297.521 373.465 297.177 372.634 296.564 372.021C295.951 371.408 295.12 371.063 294.253 371.063H103.96Z" fill="#CCCCCC"/>
<path d="M103.96 397.063C103.094 397.063 102.262 397.408 101.65 398.021C101.037 398.634 100.692 399.465 100.692 400.331C100.692 401.198 101.037 402.029 101.65 402.642C102.262 403.255 103.094 403.599 103.96 403.599H294.253C295.12 403.599 295.951 403.255 296.564 402.642C297.177 402.029 297.521 401.198 297.521 400.331C297.521 399.465 297.177 398.634 296.564 398.021C295.951 397.408 295.12 397.063 294.253 397.063H103.96Z" fill="#CCCCCC"/>
<path d="M103.96 423.063C103.094 423.063 102.262 423.408 101.65 424.021C101.037 424.634 100.692 425.465 100.692 426.331C100.692 427.198 101.037 428.029 101.65 428.642C102.262 429.255 103.094 429.599 103.96 429.599H294.253C295.12 429.599 295.951 429.255 296.564 428.642C297.177 428.029 297.521 427.198 297.521 426.331C297.521 425.465 297.177 424.634 296.564 424.021C295.951 423.408 295.12 423.063 294.253 423.063H103.96Z" fill="#CCCCCC"/>
<path d="M103.96 449.063C103.094 449.063 102.262 449.408 101.65 450.021C101.037 450.634 100.692 451.465 100.692 452.331C100.692 453.198 101.037 454.029 101.65 454.642C102.262 455.255 103.094 455.599 103.96 455.599H294.253C295.12 455.599 295.951 455.255 296.564 454.642C297.177 454.029 297.521 453.198 297.521 452.331C297.521 451.465 297.177 450.634 296.564 450.021C295.951 449.408 295.12 449.063 294.253 449.063H103.96Z" fill="#CCCCCC"/>
<path d="M103.96 475.063C103.094 475.063 102.262 475.408 101.65 476.021C101.037 476.634 100.692 477.465 100.692 478.331C100.692 479.198 101.037 480.029 101.65 480.642C102.262 481.255 103.094 481.599 103.96 481.599H294.253C295.12 481.599 295.951 481.255 296.564 480.642C297.177 480.029 297.521 479.198 297.521 478.331C297.521 477.465 297.177 476.634 296.564 476.021C295.951 475.408 295.12 475.063 294.253 475.063H103.96Z" fill="#CCCCCC"/>
<path d="M103.96 501.063C103.094 501.063 102.262 501.408 101.65 502.021C101.037 502.634 100.692 503.465 100.692 504.331C100.692 505.198 101.037 506.029 101.65 506.642C102.262 507.255 103.094 507.599 103.96 507.599H294.253C295.12 507.599 295.951 507.255 296.564 506.642C297.177 506.029 297.521 505.198 297.521 504.331C297.521 503.465 297.177 502.634 296.564 502.021C295.951 501.408 295.12 501.063 294.253 501.063H103.96Z" fill="#CCCCCC"/>
<path d="M731.71 508.998H443.607C441.681 508.996 439.835 508.23 438.473 506.869C437.112 505.507 436.346 503.661 436.344 501.735V332.263C436.346 330.337 437.112 328.491 438.473 327.13C439.835 325.768 441.681 325.002 443.607 325H731.71C733.635 325.002 735.481 325.768 736.843 327.13C738.205 328.491 738.971 330.337 738.973 332.263V501.735C738.971 503.661 738.205 505.507 736.843 506.869C735.481 508.23 733.635 508.996 731.71 508.998Z" fill="#F1F1F1"/>
<path d="M769.61 547.76H481.507C479.582 547.758 477.735 546.992 476.374 545.63C475.012 544.269 474.246 542.423 474.244 540.497V371.025C474.246 369.099 475.012 367.253 476.374 365.891C477.735 364.53 479.582 363.764 481.507 363.762H769.61C771.536 363.764 773.382 364.53 774.743 365.891C776.105 367.253 776.871 369.099 776.873 371.025V540.497C776.871 542.423 776.105 544.269 774.743 545.63C773.382 546.992 771.536 547.758 769.61 547.76Z" fill="white"/>
<path d="M769.61 550.232H481.507C478.926 550.23 476.452 549.203 474.627 547.378C472.802 545.553 471.775 543.079 471.772 540.498V371.026C471.775 368.445 472.802 365.971 474.627 364.146C476.452 362.321 478.926 361.294 481.507 361.291H769.61C772.191 361.294 774.665 362.32 776.49 364.146C778.315 365.971 779.342 368.445 779.344 371.026V540.498C779.342 543.079 778.315 545.553 776.49 547.378C774.665 549.203 772.191 550.23 769.61 550.232ZM481.507 366.234C480.237 366.236 479.019 366.741 478.121 367.639C477.222 368.538 476.717 369.755 476.716 371.026V540.498C476.717 541.768 477.222 542.986 478.121 543.884C479.019 544.783 480.237 545.288 481.507 545.289H769.61C770.88 545.288 772.098 544.783 772.996 543.884C773.895 542.986 774.4 541.768 774.401 540.498V371.026C774.4 369.755 773.895 368.538 772.996 367.639C772.098 366.741 770.88 366.236 769.61 366.234H481.507Z" fill="#3F3D56"/>
<path d="M625.17 503.291C638.977 503.291 650.17 492.098 650.17 478.291C650.17 464.484 638.977 453.291 625.17 453.291C611.363 453.291 600.17 464.484 600.17 478.291C600.17 492.098 611.363 503.291 625.17 503.291Z" fill="#FF6583"/>
<path d="M673.398 454.239C671.926 452.678 670.157 451.427 668.195 450.56C666.233 449.692 664.117 449.225 661.972 449.187C659.827 449.149 657.696 449.54 655.704 450.337C653.712 451.134 651.9 452.321 650.373 453.828L569.294 534.908C558.908 545.343 548.066 529.383 541.137 522.948C524.477 506.47 506.482 537.367 495.283 546.214H755.834V542.898L673.398 454.239Z" fill="#6C63FF"/>
<rect x="43" y="74" width="755" height="184" rx="14" fill="#F1F1F1"/>
<mask id="mask0_181_2231" style="mask-type:alpha" maskUnits="userSpaceOnUse" x="43" y="74" width="755" height="184">
<rect x="43" y="74" width="755" height="184" rx="14" fill="#F1F1F1"/>
</mask>
<g mask="url(#mask0_181_2231)">
<path d="M797.876 -54.4238V270.509C797.872 272.778 796.969 274.952 795.365 276.557C793.761 278.161 791.586 279.064 789.318 279.068H618.115C599.176 261.503 583.638 240.597 572.281 217.398C571.533 215.903 570.821 214.39 570.145 212.86C559.797 190.406 553.531 166.287 551.641 141.636C551.516 140.123 551.409 138.611 551.338 137.081C551.107 133.166 551 129.198 551 125.213C550.966 98.7056 555.972 72.4336 565.75 47.796C566.338 46.2658 566.96 44.7534 567.601 43.241C587.281 -2.99754 622.841 -40.6782 667.864 -63H789.318C791.589 -62.9951 793.766 -62.0894 795.37 -60.4816C796.975 -58.8738 797.876 -56.6952 797.876 -54.4238Z" fill="#6C63FF"/>
<path opacity="0.2" d="M798.32 47.7955V43.2405H721.971V-9.55078H717.434V43.2406H629.929V-9.55078H625.392V43.2406H567.601C566.96 44.7529 566.337 46.2654 565.75 47.7956H625.392V137.08H551.338C551.409 138.61 551.516 140.123 551.64 141.635H625.392V212.86H570.145C570.821 214.39 571.533 215.902 572.28 217.397H625.392V277.27H629.929V217.397H717.434V277.27H721.971V217.397H798.32V212.86H721.971C721.971 203.506 723.814 194.245 727.393 185.603C730.972 176.962 736.219 169.11 742.833 162.496C749.446 155.882 757.298 150.636 765.94 147.057C774.581 143.477 783.843 141.635 793.196 141.635H798.32V137.08H721.971V47.7955H798.32ZM717.434 212.86H629.929V141.635H717.434V212.86ZM717.434 137.08H629.929V135.301C629.929 112.093 639.148 89.8356 655.559 73.4252C671.969 57.0148 694.226 47.7955 717.434 47.7955L717.434 137.08Z" fill="black"/>
<path d="M736.848 245.357C735.874 245.402 734.91 245.146 734.086 244.624C733.262 244.103 732.619 243.341 732.243 242.441C731.867 241.542 731.776 240.549 731.983 239.596C732.191 238.643 732.686 237.778 733.402 237.116C733.522 236.639 733.608 236.297 733.728 235.821C733.685 235.717 733.642 235.613 733.598 235.51C729.221 225.072 714.385 225.144 710.045 235.597C706.193 244.875 701.288 254.169 700.081 263.979C699.549 268.315 699.773 272.71 700.744 276.97C691.696 257.233 686.998 235.782 686.967 214.07C686.966 208.622 687.268 203.178 687.874 197.763C688.375 193.325 689.07 188.917 689.958 184.542C694.808 160.8 705.22 138.548 720.339 119.612C727.657 115.619 733.575 109.479 737.295 102.02C738.643 99.3381 739.596 96.4756 740.124 93.5211C739.298 93.6294 738.459 93.697 737.634 93.7511C737.377 93.7646 737.106 93.7781 736.849 93.7917L736.752 93.7961C735.845 93.8368 734.945 93.6144 734.161 93.1557C733.377 92.697 732.743 92.0215 732.334 91.2105C731.925 90.3996 731.76 89.4878 731.857 88.5849C731.954 87.6819 732.311 86.8264 732.883 86.1213C733.239 85.6826 733.596 85.2442 733.953 84.8061C734.494 84.1294 735.049 83.4663 735.59 82.7897C735.653 82.7254 735.711 82.6576 735.766 82.5866C736.389 81.8152 737.011 81.0574 737.634 80.2861C736.497 78.5224 734.969 77.0451 733.168 75.9692C726.929 72.3154 718.323 74.846 713.816 80.4891C709.296 86.1321 708.444 94.0489 710.014 101.099C711.353 107.135 714.276 112.67 717.565 117.934C717.226 118.367 716.875 118.787 716.536 119.22C710.352 127.172 704.962 135.711 700.443 144.715C701.542 134.628 700.23 124.425 696.616 114.943C692.953 106.107 686.088 98.6653 680.042 91.0265C672.78 81.8511 657.889 85.8555 656.609 97.4867C656.597 97.5993 656.585 97.7119 656.573 97.8245C657.471 98.3311 658.35 98.8688 659.21 99.4376C660.291 100.159 661.128 101.191 661.612 102.397C662.096 103.603 662.205 104.927 661.924 106.195C661.643 107.464 660.985 108.618 660.037 109.507C659.089 110.395 657.894 110.976 656.61 111.174L656.478 111.195C656.798 114.431 657.364 117.639 658.17 120.789C660.506 129.585 664.634 137.804 670.295 144.93C675.956 152.055 683.028 157.935 691.068 162.199C691.596 162.47 692.11 162.741 692.638 162.998C688.098 175.864 685.25 189.265 684.166 202.865C683.553 210.889 683.589 218.949 684.274 226.967L684.234 226.683C682.502 217.767 677.745 209.722 670.769 203.907C660.407 195.395 645.767 192.26 634.588 185.418C629.207 182.125 622.311 186.381 623.251 192.62C623.266 192.719 623.281 192.819 623.296 192.919C624.963 193.597 626.585 194.379 628.154 195.26C629.052 195.766 629.932 196.304 630.792 196.873C631.872 197.595 632.709 198.626 633.194 199.832C633.678 201.038 633.787 202.362 633.505 203.631C633.224 204.899 632.567 206.053 631.618 206.942C630.67 207.83 629.476 208.412 628.191 208.61L628.06 208.63C627.965 208.643 627.884 208.657 627.789 208.671C630.636 215.469 634.633 221.727 639.603 227.17C645.743 233.758 653.164 239.023 661.411 242.641C669.658 246.26 678.557 248.156 687.563 248.213H687.576C690.021 258.836 693.563 269.177 698.146 279.068H735.902C736.037 278.648 736.159 278.215 736.281 277.795C732.786 278.015 729.277 277.806 725.833 277.173C728.635 273.736 731.436 270.271 734.237 266.834C734.299 266.77 734.358 266.702 734.413 266.631C735.834 264.872 737.268 263.126 738.689 261.367L738.69 261.365C738.766 255.972 738.147 250.592 736.849 245.358L736.848 245.357ZM693.612 160.305L693.632 160.278L693.612 160.332V160.305ZM685.249 235.695L684.924 234.965C684.938 234.437 684.938 233.909 684.924 233.368C684.924 233.219 684.897 233.07 684.897 232.921C685.019 233.855 685.127 234.789 685.262 235.722L685.249 235.695Z" fill="#2F2E41"/>
</g>
<path d="M180.253 188H110.747C108.125 188 106 190.894 106 194.463V204.537C106 208.106 108.125 211 110.747 211H180.253C182.875 211 185 208.106 185 204.537V194.463C185 190.894 182.875 188 180.253 188Z" fill="#6C63FF"/>
<path d="M365.011 126H112.989C108.577 126 105 127.887 105 130.215V136.785C105 139.113 108.577 141 112.989 141H365.011C369.423 141 373 139.113 373 136.785V130.215C373 127.887 369.423 126 365.011 126Z" fill="#3F3D56"/>
<path d="M345.607 157H112.393C108.31 157 105 158.887 105 161.215V167.785C105 170.113 108.31 172 112.393 172H345.607C349.69 172 353 170.113 353 167.785V161.215C353 158.887 349.69 157 345.607 157Z" fill="#3F3D56"/>
<path d="M1.5 1.5H840.5V567.5H1.5V1.5Z" stroke="black" stroke-width="3"/>
</g>
<defs>
<clipPath id="clip0_181_2231">
<rect width="842.17" height="568.852" fill="white"/>
</clipPath>
</defs>
</svg>
