<svg clip-rule="evenodd" fill-rule="evenodd" stroke-linejoin="round" stroke-miterlimit="2" viewBox="0 0 471 465" xmlns="http://www.w3.org/2000/svg"><path d="m266.248 394.5c-2.081 0-4.183-.033-6.246-.097l.046-1.499c2.963.092 5.987.118 8.963.077l.021 1.5c-.927.012-1.855.019-2.784.019zm11.809-.348-.088-1.497c2.967-.175 5.972-.421 8.932-.731l.156 1.491c-2.982.313-6.01.561-9 .737zm-27.072-.234c-3.002-.23-5.999-.528-8.987-.894l.183-1.488c2.949.361 5.949.66 8.918.887zm45.029-1.649-.225-1.482c2.948-.448 5.919-.967 8.827-1.545l.293 1.471c-2.953.586-5.919 1.105-8.895 1.556zm-62.951-.549c-2.969-.503-5.925-1.074-8.868-1.712l.319-1.466c2.905.631 5.866 1.202 8.799 1.699zm80.661-2.971-.36-1.456c2.9-.718 5.784-1.502 8.649-2.35l.426 1.438c-2.867.85-5.799 1.647-8.715 2.368zm-98.307-.86c-2.91-.774-5.801-1.615-8.672-2.522l.452-1.43c2.833.896 5.729 1.737 8.605 2.502zm115.619-4.276-.493-1.416c2.822-.982 5.622-2.028 8.396-3.138l.557 1.393c-2.795 1.119-5.616 2.172-8.46 3.161zm-132.86-1.175c-2.832-1.041-5.64-2.147-8.42-3.319l.582-1.383c2.76 1.162 5.546 2.261 8.356 3.295zm149.606-5.526-.621-1.365c2.715-1.234 5.402-2.53 8.057-3.888l.683 1.336c-2.676 1.368-5.383 2.674-8.119 3.917zm-166.282-1.495c-2.722-1.298-5.415-2.657-8.075-4.078l.707-1.323c2.64 1.41 5.312 2.759 8.013 4.047zm182.331-6.708-.742-1.303c2.592-1.479 5.15-3.016 7.672-4.611l.801 1.267c-2.541 1.608-5.119 3.157-7.731 4.647zm-198.282-1.814c-2.59-1.541-5.145-3.142-7.662-4.8l.825-1.252c2.498 1.645 5.033 3.233 7.604 4.763zm213.525-7.83-.859-1.229c2.448-1.71 4.856-3.475 7.223-5.295l.914 1.19c-2.385 1.833-4.812 3.611-7.278 5.334zm-228.62-2.112c-2.437-1.77-4.834-3.596-7.188-5.476l.936-1.172c2.336 1.865 4.715 3.677 7.133 5.434zm242.928-8.884-.967-1.147c2.283-1.927 4.521-3.905 6.715-5.933l1.018 1.102c-2.21 2.043-4.466 4.036-6.766 5.978zm-257.046-2.389c-2.265-1.984-4.485-4.02-6.658-6.105l1.038-1.083c2.156 2.07 4.36 4.09 6.608 6.06zm270.3-9.871-1.068-1.053c2.099-2.127 4.15-4.302 6.151-6.522l1.115 1.004c-2.016 2.237-4.083 4.428-6.198 6.571zm-283.33-2.634c-2.074-2.182-4.098-4.41-6.072-6.683l1.133-.982c1.959 2.255 3.968 4.466 6.026 6.631zm295.42-10.785-1.158-.952c1.897-2.31 3.742-4.663 5.533-7.057l1.201.898c-1.804 2.413-3.663 4.784-5.576 7.111zm-307.253-2.848c-1.867-2.359-3.68-4.761-5.437-7.203l1.217-.876c1.744 2.423 3.544 4.807 5.396 7.149zm318.075-11.622-1.241-.843c1.68-2.474 3.304-4.987 4.869-7.535l1.279.785c-1.578 2.568-3.214 5.099-4.907 7.593zm-328.613-3.022c-1.643-2.519-3.228-5.074-4.755-7.665l1.292-.762c1.515 2.571 3.088 5.107 4.719 7.606zm338.074-12.383-1.312-.725c1.447-2.62 2.834-5.272 4.159-7.955l1.345.665c-1.336 2.703-2.734 5.376-4.192 8.015zm-347.228-3.154c-1.405-2.657-2.749-5.345-4.031-8.063l1.356-.64c1.273 2.697 2.607 5.365 4.001 8.001zm355.239-13.062-1.374-.602c1.201-2.743 2.338-5.514 3.411-8.309l1.401.538c-1.082 2.817-2.228 5.609-3.438 8.373zm-362.927-3.237c-1.155-2.772-2.246-5.571-3.273-8.393l1.41-.512c1.019 2.8 2.101 5.577 3.247 8.328zm369.413-13.662-1.424-.471c.936-2.821 1.82-5.704 2.625-8.57l1.445.406c-.816 2.898-1.698 5.777-2.646 8.635zm-375.575-3.287c-.897-2.874-1.728-5.768-2.493-8.68l1.451-.381c.756 2.88 1.588 5.778 2.474 8.615zm380.464-14.096-1.461-.34c.675-2.91 1.283-5.835 1.825-8.773l1.475.271c-.545 2.961-1.158 5.909-1.839 8.842zm-385.046-3.371c-.628-2.944-1.189-5.902-1.682-8.872l1.48-.246c.489 2.947 1.046 5.883 1.669 8.805zm388.315-14.387-1.487-.204c.403-2.938.744-5.933 1.013-8.904l1.494.135c-.272 2.998-.612 5.99-1.02 8.973zm-391.271-3.425c-.355-2.989-.643-5.986-.863-8.988l1.496-.11c.217 2.973.506 5.973.857 8.921zm392.902-14.557-1.499-.067c.134-2.972.202-5.987.202-8.96h1.5c0 2.996-.068 6.033-.203 9.027zm-394.22-3.451c-.083-3.01-.099-6.021-.048-9.032l1.5.026c-.051 2.988-.035 5.977.048 8.965zm392.912-7.669c-.032-2.988-.13-5.975-.295-8.959l1.497-.084c.166 2.994.266 6.031.298 9.027zm-391.104-10.292-1.497-.094c.187-2.997.446-6.024.768-8.997l1.491.161c-.32 2.951-.576 5.955-.762 8.93zm390.107-7.601c-.3-2.957-.672-5.949-1.108-8.893l1.484-.219c.438 2.966.814 5.981 1.117 8.96zm-388.177-10.214-1.483-.229c.46-2.967.994-5.958 1.588-8.89l1.47.297c-.592 2.928-1.117 5.87-1.575 8.822zm385.556-7.511c-.574-2.932-1.213-5.852-1.919-8.755l1.457-.354c.711 2.925 1.356 5.866 1.934 8.821zm-382.003-10.051-1.455-.365c.732-2.92 1.532-5.823 2.398-8.707l1.436.431c-.859 2.862-1.652 5.743-2.379 8.641zm377.763-7.36c-.84-2.867-1.745-5.715-2.716-8.54l1.418-.488c.979 2.847 1.892 5.717 2.738 8.606zm-372.6-9.826-1.415-.497c1.002-2.847 2.068-5.67 3.199-8.468l1.391.562c-1.122 2.776-2.181 5.578-3.175 8.403zm366.775-7.121c-1.099-2.771-2.26-5.516-3.483-8.234l1.368-.616c1.233 2.739 2.403 5.506 3.51 8.298zm-360.042-9.526-1.363-.627c1.259-2.74 2.58-5.451 3.963-8.131l1.333.687c-1.373 2.66-2.684 5.351-3.933 8.071zm352.701-6.777c-1.349-2.66-2.758-5.29-4.227-7.886l1.305-.739c1.48 2.616 2.901 5.266 4.26 7.947zm-344.468-9.172-1.3-.749c1.504-2.612 3.068-5.189 4.69-7.729l1.264.807c-1.61 2.521-3.161 5.079-4.654 7.671zm335.656-6.402c-1.588-2.527-3.233-5.018-4.933-7.471l1.232-.855c1.714 2.472 3.371 4.982 4.971 7.529zm-326.002-8.717-1.226-.865c1.737-2.462 3.529-4.884 5.375-7.265l1.185.919c-1.832 2.363-3.611 4.767-5.334 7.211zm315.798-5.994c-1.812-2.374-3.678-4.707-5.596-6.996l1.15-.963c1.932 2.307 3.812 4.657 5.639 7.048zm-304.808-8.175-1.141-.972c1.94-2.28 3.963-4.548 6.011-6.743l1.096 1.023c-2.039 2.186-4.028 4.417-5.966 6.692zm293.303-5.556c-2.022-2.2-4.093-4.354-6.212-6.46l1.058-1.064c2.135 2.122 4.221 4.292 6.258 6.509zm-281.074-7.548-1.049-1.072c2.152-2.105 4.352-4.161 6.597-6.166l.999 1.119c-2.228 1.99-4.411 4.03-6.547 6.119zm268.363-5.085c-2.214-2.008-4.473-3.965-6.776-5.871l.957-1.155c2.32 1.92 4.596 3.892 6.827 5.915zm-254.999-6.849-.947-1.163c2.333-1.899 4.709-3.746 7.126-5.538l.894 1.205c-2.399 1.779-4.757 3.612-7.073 5.497zm241.186-4.58c-2.389-1.798-4.818-3.543-7.286-5.232l.846-1.238c2.487 1.701 4.935 3.459 7.342 5.272zm-226.8-6.082-.837-1.245c2.495-1.678 5.029-3.3 7.598-4.863l.779 1.282c-2.55 1.551-5.064 3.16-7.54 4.826zm211.995-4.044c-2.544-1.574-5.124-3.09-7.737-4.546l.73-1.31c2.619 1.459 5.242 3 7.796 4.58zm-196.704-5.257-.72-1.317c2.637-1.442 5.306-2.824 8.005-4.145l.66 1.347c-2.679 1.311-5.328 2.683-7.945 4.115zm181.028-3.476c-2.679-1.335-5.389-2.608-8.127-3.818l.607-1.372c2.744 1.213 5.5 2.508 8.189 3.848zm-164.962-4.383-.596-1.376c2.756-1.194 5.539-2.325 8.346-3.392l.533 1.402c-2.786 1.059-5.548 2.181-8.283 3.366zm148.539-2.876c-2.793-1.082-5.61-2.101-8.449-3.054l.478-1.422c2.85.957 5.715 1.992 8.513 3.078zm-131.807-3.477-.467-1.426c2.861-.937 5.743-1.809 8.644-2.614l.401 1.445c-2.879.799-5.739 1.664-8.578 2.595zm114.798-2.231c-2.873-.819-5.765-1.571-8.673-2.257l.344-1.46c2.917.688 5.857 1.453 8.74 2.275zm-97.532-2.561-.334-1.463c2.923-.667 5.9-1.275 8.848-1.807l.267 1.476c-2.94.53-5.868 1.129-8.781 1.794zm80.091-1.55c-2.936-.551-5.885-1.035-8.843-1.45l.208-1.486c2.97.417 5.968.909 8.912 1.461zm-62.456-1.633-.199-1.486c2.969-.397 5.989-.73 8.975-.99l.131 1.494c-2.964.259-5.96.589-8.907.982zm44.712-.86c-2.974-.28-5.955-.493-8.939-.637l.073-1.499c2.999.146 6.029.362 9.006.642zm-26.861-.697-.063-1.499c2.757-.115 5.566-.173 8.352-.174l.679.001-.005 1.5-.674-.001c-2.764.001-5.527.059-8.289.173z" fill="#373f43" fill-rule="nonzero"/><path d="m218.985 130.057v49.26c-.007.94-.778 1.711-1.718 1.718h-1.222v256.612c-.001 14.688-12.087 26.774-26.775 26.775h-160.342c-14.685-.001-26.768-12.085-26.768-26.77v-247.617h-.885c-.663-.003-1.208-.545-1.215-1.208v-28.035c.003-.665.55-1.212 1.215-1.215h.885v-10.56h-.893c-.696-.007-1.265-.579-1.267-1.275v-27.652c.005-.693.574-1.263 1.267-1.268h.893v-14.415h-.909c-.615-.003-1.12-.508-1.124-1.123v-15.092c.002-.618.507-1.127 1.125-1.132h.908v-30.555c.001-14.684 12.084-26.767 26.768-26.768h160.342c14.686 0 26.771 12.082 26.775 26.768v71.835h1.222c.94.006 1.711.777 1.718 1.717z" fill="#373f43" fill-rule="nonzero"/><path d="m118.73 45.374c0-1.046-.86-1.906-1.906-1.907h-26.055c-1.046.001-1.906.861-1.906 1.907v2.252c0 1.052.854 1.906 1.906 1.906h26.055c1.045-.001 1.905-.861 1.906-1.906z" fill="#e6e8ec"/><circle cx="126.686" cy="46.5" fill="#e6e8ec" r="3.44"/><path d="m203.224 61.794v378.073c-.005 9.316-7.672 16.98-16.988 16.98h-153.517c-9.303 0-16.958-7.655-16.958-16.958v-378.09c0-9.319 7.668-16.987 16.987-16.987h22.973v2.947c0 7.674 6.314 13.988 13.988 13.988h78.06c7.673 0 13.987-6.314 13.987-13.988v-2.947h24.486c9.316 0 16.982 7.666 16.982 16.982z" fill="#fff" fill-rule="nonzero"/><path d="m23.254 134.599h174v126.401h-174zm0 136.104h174v126.401h-174z" fill="#767676" fill-opacity=".2"/><path d="m301.636 36.779h168.618v122.221h-168.618z" fill="#f2f2f2"/><circle cx="179.254" cy="90.959" fill="#fff" r="15"/><path d="m186.004 90.477h-6.268v-6.268h-.964v6.268h-6.268v.965h6.268v6.267h.964v-6.267h6.268z" fill="#373f43" fill-rule="nonzero"/><path d="m53.18 112.811h173.999v119.445h-173.999z" fill="#3596d1"/><path d="m227.18 232.256-36.88-72.043-12.506 34.142-44.218-64.89-29.287 40.197-14.239-17.145-36.87 45.583v34.156z" fill="#357faa" fill-rule="nonzero"/><circle cx="205.932" cy="140.376" fill="#ffc814" r="12.634"/><path d="m389.408 385.796-96.518 30.196-120.066-75.764-.006-.006-.393-.242-.065-.043-.954-.599-11.432-7.193c.022-.194.049-.383.087-.566.175-.889.58-1.717 1.175-2.4.207-.245.435-.472.68-.679h.005c.108-.092.221-.183.34-.27.118-.091.242-.178.372-.258 2.21-1.483 5.543-2.114 9.015-2.303 7.499-.356 14.961 1.262 21.639 4.691 13.496 6.827 42.506 20.258 47.03 12.03 5.931-10.784-61.47-131.028-61.47-131.028-5.549-14.262-1.489-18.921 1.057-20.387.073-.043.146-.084.221-.124.412-.211.846-.376 1.294-.491.041-.012.082-.021.124-.027l8.94 11.884.135.178.48.642.145.194 54.196 72.027c83.038-44.754 111.617 74.951 111.617 74.951z" fill="#fbbebe" fill-rule="nonzero"/><path d="m191.243 203.231c-.402.827-1.254 1.345-2.173 1.321-.299-.001-.596-.041-.884-.119-2.006-.539-4.33-2.739-6.066-5.742-1.693-2.934-2.389-5.883-1.995-7.84.412-.211.846-.376 1.294-.491-.696 1.364-.281 4.465 1.639 7.791 1.569 2.723 3.693 4.783 5.403 5.236.179.075.371.114.566.114.735 0 1.363-.554 1.456-1.284l.135.178.48.642zm-18.818 136.749-.065-.043-.954-.599c.005-1.537-1.16-4.055-3.732-6.584-2.173-2.119-4.696-3.51-6.438-3.575.207-.245.435-.472.68-.679h.005c.108-.092.221-.183.34-.27 2.347.693 4.474 1.987 6.168 3.753 2.826 2.777 4.379 5.942 3.996 7.997z" fill="#373f43" fill-rule="nonzero"/><path d="m287.659 27.727h172.853v118.658h-172.853z" fill="#8cc63f"/><path d="m301.636 53.969h144.9v6.846h-144.9zm0 14.832h144.9v6.846h-144.9zm0 14.832h144.9v6.846h-144.9zm0 14.833h144.9v6.846h-144.9zm0 14.832h144.9v6.846h-144.9z" fill="#fff"/></svg>