<svg width="120" height="70" viewBox="0 0 120 70" fill="none" xmlns="http://www.w3.org/2000/svg">
<g clip-path="url(#clip0)">
<path d="M4 -7H-6V3V65.2545V75.2545H4H116.392H126.392V65.2545V3V-7H116.392H4Z" fill="white" stroke="#E6E6E6" stroke-width="20"/>
<path d="M67 15H30V12H67V15Z" fill="#3E95CB"/>
<path d="M90 21H30V18H90V21Z" fill="#E0E0E0"/>
<path d="M90 33H30V30H90V33Z" fill="#E0E0E0"/>
<path d="M90 27H30V24H90V27Z" fill="#E0E0E0"/>
<path d="M50 45H30V42H50V45Z" fill="#3E95CB"/>
<path d="M90 51H30V48H90V51Z" fill="#E0E0E0"/>
<path d="M90 57H30V54H90V57Z" fill="#E0E0E0"/>
</g>
<defs>
<clipPath id="clip0">
<rect width="120" height="69.7072" fill="white"/>
</clipPath>
</defs>
</svg>
